<svg width="16" height="16" viewBox="0 0 16 16" fill="none" xmlns="http://www.w3.org/2000/svg">
<g id="alert-circle">
<g id="Icon">
<path fill-rule="evenodd" clip-rule="evenodd" d="M7.8999 13.625C11.0065 13.625 13.5249 11.1066 13.5249 8C13.5249 4.8934 11.0065 2.375 7.8999 2.375C4.7933 2.375 2.2749 4.8934 2.2749 8C2.2749 11.1066 4.7933 13.625 7.8999 13.625ZM14.7749 8C14.7749 11.797 11.6969 14.875 7.8999 14.875C4.10294 14.875 1.0249 11.797 1.0249 8C1.0249 4.20304 4.10295 1.125 7.8999 1.125C11.6969 1.125 14.7749 4.20304 14.7749 8Z" fill="#D1D5DB"/>
<path fill-rule="evenodd" clip-rule="evenodd" d="M7.8999 11.125C7.55472 11.125 7.2749 10.8452 7.2749 10.5L7.2749 8C7.2749 7.65482 7.55472 7.375 7.8999 7.375C8.24508 7.375 8.5249 7.65482 8.5249 8L8.5249 10.5C8.5249 10.8452 8.24508 11.125 7.8999 11.125Z" fill="#D1D5DB"/>
<path fill-rule="evenodd" clip-rule="evenodd" d="M8.5249 5.5C8.5249 5.84518 8.24508 6.125 7.8999 6.125L7.89365 6.125C7.54848 6.125 7.26865 5.84518 7.26865 5.5C7.26865 5.15482 7.54848 4.875 7.89365 4.875L7.8999 4.875C8.24508 4.875 8.5249 5.15482 8.5249 5.5Z" fill="#D1D5DB"/>
</g>
</g>
</svg>
