<svg version="1.1" id="Layer_1" xmlns="http://www.w3.org/2000/svg" xmlns:xlink="http://www.w3.org/1999/xlink" x="0px" y="0px"
	 viewBox="0 0 20 20" style="enable-background:new 0 0 20 20;" xml:space="preserve">
<style type="text/css">
	.st0{fill-rule:evenodd;clip-rule:evenodd;fill:#F9FAFB;}
</style>
<g>
	<path class="st0" d="M5,4.2c-0.2,0-0.4,0.1-0.6,0.2S4.2,4.8,4.2,5v11.7c0,0.2,0.1,0.4,0.2,0.6s0.4,0.2,0.6,0.2h10
		c0.2,0,0.4-0.1,0.6-0.2c0.2-0.2,0.2-0.4,0.2-0.6V5c0-0.2-0.1-0.4-0.2-0.6c-0.2-0.2-0.4-0.2-0.6-0.2h-1.7c-0.5,0-0.8-0.4-0.8-0.8
		c0-0.5,0.4-0.8,0.8-0.8H15c0.7,0,1.3,0.3,1.8,0.7c0.5,0.5,0.7,1.1,0.7,1.8v11.7c0,0.7-0.3,1.3-0.7,1.8c-0.5,0.5-1.1,0.7-1.8,0.7H5
		c-0.7,0-1.3-0.3-1.8-0.7c-0.5-0.5-0.7-1.1-0.7-1.8V5c0-0.7,0.3-1.3,0.7-1.8S4.3,2.5,5,2.5h1.7c0.5,0,0.8,0.4,0.8,0.8
		c0,0.5-0.4,0.8-0.8,0.8H5z"/>
	<path class="st0" d="M5.8,2.5c0-0.9,0.7-1.7,1.7-1.7h5c0.9,0,1.7,0.7,1.7,1.7v1.7c0,0.9-0.7,1.7-1.7,1.7h-5c-0.9,0-1.7-0.7-1.7-1.7
		V2.5z M12.5,2.5h-5v1.7h5V2.5z"/>
</g>
</svg>
