<svg width="12" height="12" viewBox="0 0 12 12" fill="none" xmlns="http://www.w3.org/2000/svg">
<path fill-rule="evenodd" clip-rule="evenodd" d="M10 2.5C10.2761 2.5 10.5 2.72386 10.5 3C10.5 3.27614 10.2761 3.5 10 3.5H9.5V9.25C9.5 10.2165 8.7165 11 7.75 11H4.25C3.2835 11 2.5 10.2165 2.5 9.25V3.5H2C1.72386 3.5 1.5 3.27614 1.5 3C1.5 2.72386 1.72386 2.5 2 2.5H10ZM8.5 3.5H3.5V9C3.5 9.55229 3.94772 10 4.5 10H7.5C8.05228 10 8.5 9.55229 8.5 9V3.5ZM5 4.5C5.27614 4.5 5.5 4.72386 5.5 5V8C5.5 8.27614 5.27614 8.5 5 8.5C4.72386 8.5 4.5 8.27614 4.5 8V5C4.5 4.72386 4.72386 4.5 5 4.5ZM7 4.5C7.27614 4.5 7.5 4.72386 7.5 5V8C7.5 8.27614 7.27614 8.5 7 8.5C6.72386 8.5 6.5 8.27614 6.5 8V5C6.5 4.72386 6.72386 4.5 7 4.5ZM7 1C7.27614 1 7.5 1.22386 7.5 1.5C7.5 1.77614 7.27614 2 7 2H5C4.72386 2 4.5 1.77614 4.5 1.5C4.5 1.22386 4.72386 1 5 1H7Z" fill="#EF4444"/>
</svg>
