<svg width="12" height="12" viewBox="0 0 12 12" fill="none" xmlns="http://www.w3.org/2000/svg">
<g clipPath="url(#clip0_1822_29250)">
<path fill-rule="evenodd" clip-rule="evenodd" d="M9.50001 1.58594C9.37996 1.58594 9.26108 1.60958 9.15016 1.65553C9.03924 1.70147 8.93846 1.76881 8.85357 1.8537L2.19746 8.50981L1.71262 10.2875L3.49035 9.80271L10.1465 3.1466C10.2314 3.0617 10.2987 2.96092 10.3446 2.85001C10.3906 2.73909 10.4142 2.62021 10.4142 2.50015C10.4142 2.38009 10.3906 2.26121 10.3446 2.1503C10.2987 2.03938 10.2314 1.9386 10.1465 1.8537C10.0616 1.76881 9.96078 1.70147 9.84987 1.65553C9.73895 1.60958 9.62007 1.58594 9.50001 1.58594ZM8.76747 0.731648C8.99972 0.63545 9.24863 0.585938 9.50001 0.585938C9.75139 0.585938 10.0003 0.63545 10.2325 0.731648C10.4648 0.827846 10.6758 0.968846 10.8536 1.1466C11.0313 1.32435 11.1723 1.53537 11.2685 1.76761C11.3647 1.99986 11.4142 2.24877 11.4142 2.50015C11.4142 2.75153 11.3647 3.00044 11.2685 3.23269C11.1723 3.46493 11.0313 3.67595 10.8536 3.8537L4.10356 10.6037C4.04204 10.6652 3.96552 10.7096 3.88157 10.7325L1.13157 11.4825C0.958464 11.5297 0.773333 11.4806 0.646458 11.3537C0.519583 11.2268 0.470419 11.0417 0.51763 10.8686L1.26763 8.11859C1.29052 8.03465 1.33493 7.95813 1.39646 7.8966L8.14646 1.1466C8.32421 0.968846 8.53523 0.827846 8.76747 0.731648Z" fill="#F9FAFB"/>
</g>
<defs>
<clipPath id="clip0_1822_29250">
<rect width="12" height="12" fill="none"/>
</clipPath>
</defs>
</svg>
