<svg width="20" height="20" viewBox="0 0 20 20" fill="none" xmlns="http://www.w3.org/2000/svg">
  <path fill-rule="evenodd" clip-rule="evenodd" d="M9.16701 16.6675C9.16701 16.2073 9.54011 15.8342 10.0003 15.8342H17.5003C17.9606 15.8342 18.3337 16.2073 18.3337 16.6675C18.3337 17.1277 17.9606 17.5008 17.5003 17.5008H10.0003C9.54011 17.5008 9.16701 17.1277 9.16701 16.6675Z" fill="#F9FAFB"/>
  <path fill-rule="evenodd" clip-rule="evenodd" d="M15.0003 3.23307C14.7525 3.23307 14.5148 3.33152 14.3396 3.50676L4.08615 13.7602L3.64565 15.5222L5.40764 15.0817L15.6611 4.82825C15.7479 4.74148 15.8167 4.63847 15.8636 4.5251C15.9106 4.41173 15.9348 4.29022 15.9348 4.16751C15.9348 4.0448 15.9106 3.92329 15.8636 3.80991C15.8167 3.69654 15.7479 3.59353 15.6611 3.50676C15.5743 3.41999 15.4713 3.35116 15.3579 3.3042C15.2446 3.25724 15.1231 3.23307 15.0003 3.23307ZM13.1611 2.32825C13.6489 1.84045 14.3105 1.56641 15.0003 1.56641C15.3419 1.56641 15.6802 1.63369 15.9957 1.7644C16.3113 1.89512 16.5981 2.08672 16.8396 2.32825C17.0811 2.56978 17.2727 2.85653 17.4034 3.17211C17.5342 3.48769 17.6014 3.82592 17.6014 4.16751C17.6014 4.50909 17.5342 4.84732 17.4034 5.1629C17.2727 5.47848 17.0811 5.76523 16.8396 6.00676L6.42293 16.4234C6.31613 16.5302 6.18232 16.606 6.03579 16.6426L2.70246 17.476C2.41848 17.547 2.11807 17.4637 1.91109 17.2568C1.7041 17.0498 1.6209 16.7494 1.69189 16.4654L2.52522 13.1321C2.56186 12.9855 2.63762 12.8517 2.74442 12.7449L13.1611 2.32825Z" fill="#F9FAFB"/>
</svg>