<svg width="19" height="18" viewBox="0 0 19 18" fill="none" xmlns="http://www.w3.org/2000/svg">
<g id="expired">
<path id="Icon" fill-rule="evenodd" clip-rule="evenodd" d="M2.44271 10.267C2.14124 10.267 1.88513 10.0358 1.85949 9.73002C1.84191 9.52058 1.83301 9.3073 1.83301 9.09607C1.83301 8.77246 2.09533 8.51013 2.41895 8.51013C2.74256 8.51013 3.00488 8.77246 3.00488 9.09607C3.00488 9.27478 3.01241 9.45513 3.02724 9.63211C3.05428 9.95461 2.81478 10.2379 2.4923 10.265C2.47566 10.2663 2.45908 10.267 2.44271 10.267ZM3.56246 11.6976C3.42925 11.4026 3.08211 11.2715 2.78729 11.4048C2.49236 11.538 2.36129 11.8851 2.4945 12.1799C2.58128 12.3721 2.67752 12.5631 2.78047 12.7475C2.88775 12.9397 3.08715 13.048 3.29264 13.048C3.38929 13.048 3.48731 13.024 3.57767 12.9736C3.86023 12.8159 3.96146 12.4589 3.80372 12.1764C3.71686 12.0207 3.63567 11.8596 3.56246 11.6976ZM5.55986 14.1768C5.41713 14.0706 5.27706 13.9569 5.14353 13.8389C4.90104 13.6246 4.53075 13.6475 4.31647 13.8898C4.10214 14.1323 4.12496 14.5026 4.36739 14.7169C4.52548 14.8567 4.69139 14.9913 4.86046 15.117C4.96552 15.1952 5.08812 15.2329 5.20971 15.2329C5.38862 15.2329 5.56531 15.1512 5.6803 14.9966C5.87343 14.737 5.81952 14.3699 5.55986 14.1768ZM7.98022 15.2794C7.80632 15.2416 7.63206 15.1958 7.46223 15.1433C7.15303 15.0478 6.82496 15.221 6.72942 15.5302C6.63389 15.8394 6.80706 16.1674 7.11626 16.263C7.31779 16.3252 7.5246 16.3796 7.73088 16.4245C7.77292 16.4337 7.81479 16.438 7.85609 16.438C8.12565 16.438 8.36835 16.2508 8.42803 15.9766C8.49693 15.6604 8.29643 15.3483 7.98022 15.2794ZM14.6363 3.73418C13.2197 2.31762 11.3363 1.53748 9.33301 1.53748C7.19565 1.53748 5.17944 2.44694 3.7666 4.01092V2.70935C3.7666 2.38574 3.50428 2.12341 3.18066 2.12341C2.85705 2.12341 2.59473 2.38574 2.59473 2.70935V4.2666C2.59704 4.73083 2.77766 5.16812 3.10335 5.49794C3.43019 5.82891 3.86618 6.01427 4.33104 6.01987L5.84668 6.0199C6.17029 6.0199 6.43262 5.75757 6.43262 5.43396C6.43262 5.11035 6.17029 4.84802 5.84668 4.84802H4.5902C5.78454 3.49679 7.50638 2.70935 9.33301 2.70935C12.8224 2.70935 15.6611 5.54813 15.6611 9.03748C15.6611 12.149 13.3444 14.8397 10.2722 15.2965C9.95217 15.3441 9.73124 15.6421 9.77885 15.9622C9.82209 16.2531 10.0722 16.4621 10.3577 16.4621C10.3863 16.4621 10.4154 16.46 10.4446 16.4556C12.205 16.1939 13.8208 15.3065 14.9945 13.9568C16.1801 12.5934 16.833 10.8463 16.833 9.03748C16.833 7.03416 16.0529 5.15075 14.6363 3.73418ZM8.13808 9.10117C8.1575 9.08479 8.17654 9.06882 8.195 9.05318C8.16225 9.02576 8.12753 8.99699 8.09185 8.9674C7.56846 8.53348 6.85156 7.93922 6.85156 7.2102V6.8696C6.85156 6.30417 7.31179 5.84415 7.87748 5.84415H10.8472C11.4129 5.84415 11.8731 6.30417 11.8731 6.8696V7.2102C11.8731 7.93925 11.1562 8.53351 10.6328 8.96743C10.5908 9.00217 10.5503 9.03581 10.5126 9.06748C10.5466 9.09598 10.5828 9.12598 10.6201 9.15686C11.1489 9.59488 11.8731 10.1948 11.8731 10.9234V11.264C11.8731 11.8294 11.4129 12.2895 10.8472 12.2895H7.87745C7.31176 12.2895 6.85153 11.8294 6.85153 11.264V10.9234C6.85156 10.1845 7.59515 9.55837 8.13808 9.10117ZM8.25175 7.53604C8.42352 7.72017 8.64465 7.90348 8.83977 8.06523C8.91793 8.13003 8.99176 8.19124 9.0585 8.24924C9.19602 8.36877 9.30151 8.53123 9.3623 8.70859C9.4231 8.53123 9.52859 8.36877 9.66608 8.24927C9.73282 8.19126 9.80668 8.13003 9.88484 8.06523C10.08 7.90348 10.3011 7.72017 10.4729 7.53604C10.6723 7.32223 10.6986 7.21899 10.7012 7.20639V7.01599H8.02344V7.20639C8.02602 7.21899 8.05229 7.3222 8.25175 7.53604ZM8.02344 10.9277V11.1176H10.7012V10.9281C10.6981 10.914 10.669 10.8086 10.4661 10.5923C10.2917 10.4065 10.069 10.222 9.87254 10.0593C9.79323 9.99361 9.71832 9.93156 9.65108 9.87311C9.50516 9.74628 9.41272 9.57891 9.36022 9.41195C9.30181 9.58038 9.20328 9.73117 9.07353 9.84396C9.01947 9.89095 8.95842 9.94237 8.89291 9.99756C8.7004 10.1597 8.46081 10.3614 8.27662 10.5604C8.05543 10.7992 8.02628 10.9136 8.02344 10.9277Z" fill="#F9FAFB"/>
</g>
</svg>
