<svg width="20" height="21" viewBox="0 0 20 21" fill="none" xmlns="http://www.w3.org/2000/svg">
<path d="M12.2917 5.12891V3.25391L16.0417 7.00391H14.1667C12.8501 7.00391 12.2917 6.44557 12.2917 5.12891ZM16.6667 8.25391V15.1289C16.6667 16.7956 15.8334 17.6289 14.1667 17.6289H6.66675C5.00008 17.6289 4.16675 16.7956 4.16675 15.1289V5.12891C4.16675 3.46224 5.00008 2.62891 6.66675 2.62891H11.0417V5.12891C11.0417 7.14557 12.1501 8.25391 14.1667 8.25391H16.6667ZM8.62516 10.2539C8.62516 11.2422 9.42925 12.0456 10.4167 12.0456C11.4042 12.0456 12.2083 11.2414 12.2083 10.2539C12.2083 9.2664 11.4042 8.46224 10.4167 8.46224C9.42925 8.46224 8.62516 9.26557 8.62516 10.2539ZM13.3334 15.2931C13.3334 14.1764 12.516 13.0456 10.9518 13.0456H9.88249C8.31832 13.0456 7.5009 14.1764 7.5009 15.2931V15.5456C7.5009 15.7756 7.68756 15.9622 7.91756 15.9622H12.9176C13.1476 15.9622 13.3342 15.7756 13.3342 15.5456V15.2931H13.3334Z" fill="#F9FAFB"/>
</svg>
