<svg width="16" height="16" viewBox="0 0 16 16" fill="none" xmlns="http://www.w3.org/2000/svg">
<path fill-rule="evenodd" clip-rule="evenodd" d="M7.17128 4.50834C7.02322 4.58618 6.8438 4.57321 6.70848 4.47488C6.57315 4.37656 6.50538 4.20993 6.53366 4.04506L6.69197 3.12229L6.02152 2.46876C5.90174 2.352 5.85863 2.17736 5.91032 2.01828C5.96201 1.85919 6.09953 1.74324 6.26507 1.71919L7.19159 1.58454L7.60596 0.74496C7.67999 0.594963 7.83276 0.5 8.00003 0.5C8.16731 0.5 8.32007 0.594963 8.3941 0.74496L8.80848 1.58454L9.735 1.71919C9.90053 1.74324 10.0381 1.85919 10.0897 2.01828C10.1414 2.17736 10.0983 2.352 9.97855 2.46876L9.30809 3.12229L9.4664 4.04506C9.49469 4.20993 9.42692 4.37656 9.29159 4.47488C9.15626 4.57321 8.97685 4.58618 8.82878 4.50834L8.00003 4.07265L7.17128 4.50834ZM7.59729 3.04318L7.55048 3.31603L7.79554 3.1872C7.92356 3.11989 8.0765 3.11989 8.20452 3.1872L8.44958 3.31603L8.40278 3.04318C8.37832 2.90062 8.42558 2.75516 8.52916 2.65419L8.72745 2.4609L8.45345 2.42109C8.31033 2.40029 8.18659 2.31039 8.12258 2.18069L8.00003 1.93239L7.87748 2.18069C7.81347 2.31039 7.68974 2.40029 7.54661 2.42109L7.27262 2.4609L7.47091 2.65419C7.57449 2.75516 7.62175 2.90062 7.59729 3.04318Z" fill="#1E1F38"/>
<path fill-rule="evenodd" clip-rule="evenodd" d="M1.89784 8.08256C1.74978 8.1604 1.57037 8.14743 1.43504 8.0491C1.29971 7.95078 1.23194 7.78415 1.26023 7.61928L1.41853 6.69651L0.748082 6.04298C0.6283 5.92622 0.585191 5.75158 0.63688 5.5925C0.68857 5.43341 0.826093 5.31746 0.991627 5.29341L1.91815 5.15876L2.33252 4.31918C2.40655 4.16918 2.55932 4.07422 2.72659 4.07422C2.89387 4.07422 3.04663 4.16918 3.12066 4.31918L3.53504 5.15876L4.46156 5.29341C4.6271 5.31746 4.76462 5.43341 4.81631 5.5925C4.868 5.75158 4.82489 5.92622 4.70511 6.04298L4.03466 6.69651L4.19296 7.61928C4.22125 7.78415 4.15348 7.95078 4.01815 8.0491C3.88282 8.14743 3.70341 8.1604 3.55535 8.08256L2.72659 7.64687L1.89784 8.08256ZM2.32385 6.6174L2.27704 6.89025L2.5221 6.76142C2.65012 6.69411 2.80306 6.69411 2.93109 6.76142L3.17615 6.89025L3.12934 6.6174C3.10488 6.47484 3.15214 6.32937 3.25572 6.22841L3.45401 6.03512L3.18002 5.99531C3.03689 5.97451 2.91316 5.88461 2.84914 5.75491L2.72659 5.50661L2.60404 5.75491C2.54003 5.88461 2.4163 5.97451 2.27317 5.99531L1.99918 6.03512L2.19747 6.22841C2.30105 6.32937 2.34831 6.47484 2.32385 6.6174Z" fill="#1E1F38"/>
<path fill-rule="evenodd" clip-rule="evenodd" d="M11.9819 8.0491C12.1172 8.14743 12.2967 8.1604 12.4447 8.08256L13.2735 7.64687L14.1022 8.08256C14.2503 8.1604 14.4297 8.14743 14.565 8.0491C14.7004 7.95078 14.7681 7.78415 14.7398 7.61928L14.5815 6.69651L15.252 6.04298C15.3718 5.92622 15.4149 5.75158 15.3632 5.5925C15.3115 5.43341 15.174 5.31746 15.0084 5.29341L14.0819 5.15876L13.6675 4.31918C13.5935 4.16918 13.4407 4.07422 13.2735 4.07422C13.1062 4.07422 12.9534 4.16918 12.8794 4.31918L12.465 5.15876L11.5385 5.29341C11.373 5.31746 11.2354 5.43341 11.1838 5.5925C11.1321 5.75158 11.1752 5.92622 11.295 6.04298L11.9654 6.69651L11.8071 7.61928C11.7788 7.78415 11.8466 7.95078 11.9819 8.0491ZM12.8239 6.89025L12.8707 6.6174C12.8952 6.47484 12.8479 6.32937 12.7443 6.22841L12.5461 6.03512L12.8201 5.99531C12.9632 5.97451 13.0869 5.88461 13.1509 5.75491L13.2735 5.50661L13.396 5.75491C13.46 5.88461 13.5838 5.97451 13.7269 5.99531L14.0009 6.03512L13.8026 6.22841C13.699 6.32937 13.6518 6.47484 13.6762 6.6174L13.723 6.89025L13.478 6.76142C13.3499 6.69411 13.197 6.69411 13.069 6.76142L12.8239 6.89025Z" fill="#1E1F38"/>
<path fill-rule="evenodd" clip-rule="evenodd" d="M8.43728 15.1045C8.41471 15.3291 8.22571 15.5 8.00003 15.5C7.77435 15.5 7.58535 15.3291 7.56278 15.1045L6.68824 6.40381C6.68395 6.36054 6.68167 6.31638 6.68167 6.27148C6.68167 5.54339 7.27194 4.95312 8.00003 4.95312C8.72812 4.95312 9.31839 5.54339 9.31839 6.27148C9.31839 6.31638 9.31611 6.36054 9.31182 6.40381L8.43728 15.1045ZM7.56283 6.31679L7.56285 6.31705L8.00003 10.6665L8.43721 6.31705L8.43723 6.31681C8.43872 6.30168 8.43948 6.28656 8.43948 6.27148C8.43948 6.0288 8.24272 5.83203 8.00003 5.83203C7.75734 5.83203 7.56058 6.0288 7.56058 6.27148C7.56058 6.28656 7.56134 6.30167 7.56283 6.31679Z" fill="#1E1F38"/>
<path fill-rule="evenodd" clip-rule="evenodd" d="M6.38119 15.4775C6.58598 15.4092 6.71087 15.2023 6.67585 14.9893L5.78528 9.57218C5.68235 8.94624 5.13954 8.46875 4.4844 8.46875C3.75632 8.46875 3.16604 9.05898 3.16604 9.78711C3.16604 10.0059 3.21967 10.2134 3.31487 10.396L5.85254 15.2637C5.95233 15.4551 6.17639 15.5457 6.38119 15.4775ZM5.36347 12.4243L4.09423 9.98969C4.06287 9.92955 4.04495 9.86108 4.04495 9.78711C4.04495 9.5444 4.24171 9.34766 4.4844 9.34766C4.70219 9.34766 4.88377 9.50656 4.91802 9.71476L5.36347 12.4243Z" fill="#1E1F38"/>
<path fill-rule="evenodd" clip-rule="evenodd" d="M10.1475 15.2637C10.0477 15.4551 9.82367 15.5457 9.61887 15.4775C9.41408 15.4092 9.28919 15.2023 9.32421 14.9893L10.2148 9.57216C10.3177 8.94622 10.8605 8.46875 11.5157 8.46875C12.2437 8.46875 12.834 9.05898 12.834 9.78711C12.834 10.0059 12.7804 10.2134 12.6852 10.396L10.1475 15.2637ZM11.082 9.71477L10.6366 12.4243L11.9058 9.98968C11.9372 9.92954 11.9551 9.86108 11.9551 9.78711C11.9551 9.5444 11.7584 9.34766 11.5157 9.34766C11.2979 9.34766 11.1163 9.50658 11.082 9.71477Z" fill="#1E1F38"/>
<path d="M4.79515 15.3713C4.96676 15.1997 4.96676 14.9214 4.79515 14.7498L2.59788 12.5525C2.42626 12.3809 2.14802 12.3809 1.9764 12.5525C1.80478 12.7242 1.80478 13.0024 1.9764 13.174L4.17366 15.3713C4.34528 15.5429 4.62353 15.5429 4.79515 15.3713Z" fill="#1E1F38"/>
<path d="M0.939484 11.9844C1.18218 11.9844 1.37894 11.7876 1.37894 11.5449C1.37894 11.3022 1.18218 11.1055 0.939484 11.1055C0.696788 11.1055 0.500031 11.3022 0.500031 11.5449C0.500031 11.7876 0.696788 11.9844 0.939484 11.9844Z" fill="#1E1F38"/>
<path d="M11.2049 15.3713C11.3765 15.5429 11.6548 15.5429 11.8264 15.3713L14.0237 13.174C14.1953 13.0024 14.1953 12.7242 14.0237 12.5525C13.852 12.3809 13.5738 12.3809 13.4022 12.5525L11.2049 14.7498C11.0333 14.9214 11.0333 15.1997 11.2049 15.3713Z" fill="#1E1F38"/>
<path d="M15.0606 11.9844C14.8179 11.9844 14.6211 11.7876 14.6211 11.5449C14.6211 11.3022 14.8179 11.1055 15.0606 11.1055C15.3033 11.1055 15.5 11.3022 15.5 11.5449C15.5 11.7876 15.3033 11.9844 15.0606 11.9844Z" fill="#1E1F38"/>
</svg>
