<svg width="20" height="20" viewBox="0 0 20 20" fill="none" xmlns="http://www.w3.org/2000/svg">
<path fill-rule="evenodd" clip-rule="evenodd" d="M3.33398 3.33366C3.11297 3.33366 2.90101 3.42146 2.74473 3.57774C2.58845 3.73402 2.50065 3.94598 2.50065 4.16699V15.8337C2.50065 16.0547 2.58845 16.2666 2.74473 16.4229C2.90101 16.5792 3.11297 16.667 3.33398 16.667H16.6673C16.8883 16.667 17.1003 16.5792 17.2566 16.4229C17.4129 16.2666 17.5006 16.0547 17.5006 15.8337V6.66699C17.5006 6.44598 17.4129 6.23402 17.2566 6.07774C17.1003 5.92146 16.8883 5.83366 16.6673 5.83366H9.16732C8.88869 5.83366 8.6285 5.69441 8.47394 5.46258L7.05466 3.33366H3.33398ZM1.56622 2.39923C2.03506 1.93038 2.67094 1.66699 3.33398 1.66699H7.50065C7.77928 1.66699 8.03947 1.80624 8.19403 2.03808L9.6133 4.16699H16.6673C17.3304 4.16699 17.9662 4.43038 18.4351 4.89923C18.9039 5.36807 19.1673 6.00395 19.1673 6.66699V15.8337C19.1673 16.4967 18.9039 17.1326 18.4351 17.6014C17.9662 18.0703 17.3304 18.3337 16.6673 18.3337H3.33398C2.67094 18.3337 2.03506 18.0703 1.56622 17.6014C1.09738 17.1326 0.833984 16.4967 0.833984 15.8337V4.16699C0.833984 3.50395 1.09738 2.86807 1.56622 2.39923Z" fill="#F9FAFB"/>
<path fill-rule="evenodd" clip-rule="evenodd" d="M10.834 9.16699C10.834 8.70676 10.4609 8.33366 10.0007 8.33366C9.54041 8.33366 9.16732 8.70676 9.16732 9.16699V10.8337H7.50065C7.04041 10.8337 6.66732 11.2068 6.66732 11.667C6.66732 12.1272 7.04041 12.5003 7.50065 12.5003H9.16732V14.167C9.16732 14.6272 9.54041 15.0003 10.0007 15.0003C10.4609 15.0003 10.834 14.6272 10.834 14.167V12.5003H12.5007C12.9609 12.5003 13.334 12.1272 13.334 11.667C13.334 11.2068 12.9609 10.8337 12.5007 10.8337H10.834V9.16699ZM10.834 10.8337H9.16732V12.5003H10.834V10.8337Z" fill="#F9FAFB"/>
<path d="M10.834 10.8337H9.16732V12.5003H10.834V10.8337Z" fill="#F9FAFB"/>
</svg>
