<svg width="20" height="21" viewBox="0 0 20 21" fill="none" xmlns="http://www.w3.org/2000/svg">
<g id="hard-drive">
<g id="Icon">
<path fill-rule="evenodd" clip-rule="evenodd" d="M4.16658 13.9115C4.16658 13.4512 4.53968 13.0781 4.99992 13.0781H5.00825C5.46849 13.0781 5.84159 13.4512 5.84159 13.9115C5.84159 14.3717 5.46849 14.7448 5.00825 14.7448H4.99992C4.53968 14.7448 4.16658 14.3717 4.16658 13.9115Z" fill="#F9FAFB"/>
<path fill-rule="evenodd" clip-rule="evenodd" d="M7.49992 13.9115C7.49992 13.4512 7.87301 13.0781 8.33325 13.0781H8.34158C8.80182 13.0781 9.17492 13.4512 9.17492 13.9115C9.17492 14.3717 8.80182 14.7448 8.34158 14.7448H8.33325C7.87301 14.7448 7.49992 14.3717 7.49992 13.9115Z" fill="#F9FAFB"/>
<path d="M18.3333 11.4115C18.7935 11.4115 19.1666 11.0384 19.1666 10.5781L19.1664 10.5606C19.1638 10.4371 19.1338 10.3156 19.0784 10.205L19.0709 10.19C19.0351 10.1221 18.9901 10.0597 18.9377 10.0045C18.855 9.91733 18.7536 9.84806 18.64 9.80306C18.545 9.76546 18.4416 9.74479 18.3333 9.74479H16.984L17.4999 10.7751V11.4115H18.3333Z" fill="#F9FAFB"/>
<path fill-rule="evenodd" clip-rule="evenodd" d="M0.833252 10.5781C0.833252 10.438 0.867842 10.3059 0.92895 10.19C1.06854 9.92527 1.34648 9.74479 1.66659 9.74479H3.01582H16.984L17.4999 10.7751V11.4115H2.49992V15.5781C2.49992 15.7991 2.58772 16.0111 2.744 16.1674C2.90028 16.3237 3.11224 16.4115 3.33325 16.4115H16.6666C16.8876 16.4115 17.0996 16.3237 17.2558 16.1674C17.4121 16.0111 17.4999 15.7991 17.4999 15.5781V11.4115H18.3333C18.7935 11.4115 19.1666 11.0384 19.1666 10.5781V15.5781C19.1666 16.2412 18.9032 16.8771 18.4344 17.3459C17.9655 17.8147 17.3296 18.0781 16.6666 18.0781H3.33325C2.67021 18.0781 2.03433 17.8147 1.56548 17.3459C1.09664 16.8771 0.833252 16.2412 0.833252 15.5781V10.5781ZM18.64 9.80306L19.1664 10.5606C19.1638 10.4371 19.1338 10.3156 19.0784 10.205L19.0709 10.19L18.9377 10.0045C18.855 9.91733 18.7536 9.84806 18.64 9.80306Z" fill="#F9FAFB"/>
<path d="M13.9666 3.07813L6.03325 3.07812C5.56815 3.07837 5.11189 3.20836 4.71661 3.45347C4.32173 3.69835 4.0029 4.04843 3.79592 4.46441C3.79571 4.46481 3.79551 4.46522 3.79531 4.46563L0.92895 10.19C1.06854 9.92527 1.34648 9.74479 1.66659 9.74479H3.01582L5.28673 5.20957L5.28786 5.20729C5.35685 5.06845 5.4632 4.95161 5.59496 4.86991C5.72668 4.78823 5.87855 4.7449 6.03353 4.74479H13.9663C14.1213 4.7449 14.2732 4.78823 14.4049 4.86991C14.5366 4.95161 14.643 5.06845 14.712 5.20729L14.7131 5.20957L16.984 9.74479H18.3333C18.4416 9.74479 18.545 9.76546 18.64 9.80306C18.7536 9.84806 18.855 9.91733 18.9377 10.0045C18.9901 10.0597 19.0351 10.1221 19.0709 10.19L16.2045 4.46563C16.2043 4.46526 16.2042 4.46489 16.204 4.46452C15.997 4.04849 15.6781 3.69837 15.2832 3.45347C14.8879 3.20836 14.4317 3.07837 13.9666 3.07813Z" fill="#F9FAFB"/>
</g>
</g>
</svg>
