<svg version="1.1" id="Layer_1" xmlns="http://www.w3.org/2000/svg" xmlns:xlink="http://www.w3.org/1999/xlink" x="0px" y="0px"
	 viewBox="0 0 20 21" style="enable-background:new 0 0 20 21;" xml:space="preserve">
<style type="text/css">
	.st0{fill-rule:evenodd;clip-rule:evenodd;fill:#F9FAFB;}
</style>
<path class="st0" d="M18,7.4l-7.5-5.8c-0.3-0.2-0.7-0.2-1,0L2,7.4C1.8,7.6,1.7,7.8,1.7,8.1v9.2c0,0.7,0.3,1.3,0.7,1.8
	c0.5,0.5,1.1,0.7,1.8,0.7h11.7c0.7,0,1.3-0.3,1.8-0.7c0.5-0.5,0.7-1.1,0.7-1.8V8.1C18.3,7.8,18.2,7.6,18,7.4z M11.7,18.1H8.3v-6.7
	h3.3V18.1z M16.7,17.2c0,0.2-0.1,0.4-0.2,0.6c-0.1,0.2-0.4,0.2-0.6,0.2h-2.5v-7.5c0-0.5-0.4-0.8-0.8-0.8h-5c-0.5,0-0.8,0.4-0.8,0.8
	v7.5H4.2c-0.2,0-0.4-0.1-0.6-0.2c-0.2-0.2-0.2-0.4-0.2-0.6V8.5L10,3.3l6.7,5.2V17.2z"/>
</svg>
