<svg width="19" height="18" viewBox="0 0 19 18" fill="none" xmlns="http://www.w3.org/2000/svg">
<path fill-rule="evenodd" clip-rule="evenodd" d="M2.77638 10.2672C2.47492 10.2672 2.21881 10.0359 2.19317 9.73015C2.17559 9.5207 2.16669 9.30742 2.16669 9.09619C2.16669 8.77258 2.42901 8.51025 2.75262 8.51025C3.07624 8.51025 3.33856 8.77258 3.33856 9.09619C3.33856 9.2749 3.34609 9.45525 3.36092 9.63224C3.38796 9.95474 3.14845 10.2381 2.82598 10.2651C2.80934 10.2665 2.79276 10.2672 2.77638 10.2672ZM3.89614 11.6977C3.76293 11.4028 3.41579 11.2717 3.12097 11.4049C2.82604 11.5381 2.69497 11.8852 2.82818 12.1801C2.91496 12.3723 3.0112 12.5632 3.11415 12.7477C3.22143 12.9399 3.42083 13.0481 3.62632 13.0481C3.72297 13.0481 3.82099 13.0242 3.91135 12.9737C4.19391 12.816 4.29513 12.4591 4.1374 12.1765C4.05053 12.0208 3.96935 11.8598 3.89614 11.6977ZM5.89354 14.1769C5.75081 14.0707 5.61074 13.957 5.4772 13.839C5.23471 13.6247 4.86443 13.6476 4.65015 13.89C4.43582 14.1324 4.45864 14.5027 4.70107 14.717C4.85916 14.8568 5.02507 14.9914 5.19414 15.1171C5.2992 15.1953 5.4218 15.233 5.54339 15.233C5.7223 15.233 5.89899 15.1513 6.01398 14.9967C6.20711 14.7371 6.1532 14.37 5.89354 14.1769ZM8.3139 15.2796C8.14 15.2417 7.96574 15.1959 7.79591 15.1434C7.48671 15.0479 7.15864 15.2211 7.0631 15.5303C6.96757 15.8395 7.14074 16.1675 7.44994 16.2631C7.65147 16.3254 7.85828 16.3797 8.06456 16.4246C8.1066 16.4338 8.14846 16.4382 8.18977 16.4382C8.45933 16.4382 8.70203 16.2509 8.76171 15.9768C8.83061 15.6605 8.63011 15.3484 8.3139 15.2796ZM14.97 3.73431C13.5534 2.31774 11.67 1.5376 9.66669 1.5376C7.52933 1.5376 5.51312 2.44706 4.10028 4.01104V2.70947C4.10028 2.38586 3.83796 2.12354 3.51434 2.12354C3.19073 2.12354 2.92841 2.38586 2.92841 2.70947V4.26672C2.93072 4.73096 3.11134 5.16824 3.43703 5.49807C3.76386 5.82903 4.19986 6.01439 4.66471 6.01999L6.18036 6.02002C6.50397 6.02002 6.7663 5.7577 6.7663 5.43408C6.7663 5.11047 6.50397 4.84814 6.18036 4.84814H4.92387C6.11822 3.49691 7.84006 2.70947 9.66669 2.70947C13.156 2.70947 15.9948 5.54825 15.9948 9.0376C15.9948 12.1491 13.6781 14.8398 10.6059 15.2966C10.2858 15.3442 10.0649 15.6423 10.1125 15.9624C10.1558 16.2532 10.4058 16.4622 10.6913 16.4622C10.72 16.4622 10.7491 16.4601 10.7783 16.4557C12.5387 16.194 14.1545 15.3066 15.3282 13.9569C16.5137 12.5935 17.1667 10.8464 17.1667 9.0376C17.1667 7.03428 16.3865 5.15087 14.97 3.73431ZM8.47176 9.10129C8.49118 9.08491 8.51022 9.06895 8.52868 9.0533C8.49592 9.02588 8.46121 8.99711 8.42552 8.96752C7.90214 8.5336 7.18524 7.93935 7.18524 7.21032V6.86972C7.18524 6.30429 7.64547 5.84427 8.21116 5.84427H11.1808C11.7465 5.84427 12.2068 6.30429 12.2068 6.86972V7.21032C12.2068 7.93937 11.4899 8.53363 10.9664 8.96755C10.9245 9.0023 10.8839 9.03593 10.8463 9.0676C10.8803 9.0961 10.9165 9.1261 10.9538 9.15698C11.4826 9.595 12.2068 10.1949 12.2068 10.9235V11.2641C12.2068 11.8296 11.7465 12.2896 11.1808 12.2896H8.21113C7.64544 12.2896 7.18521 11.8296 7.18521 11.2641V10.9235C7.18524 10.1847 7.92883 9.5585 8.47176 9.10129ZM8.58543 7.53616C8.75719 7.72029 8.97833 7.9036 9.17344 8.06535C9.25161 8.13016 9.32544 8.19136 9.39218 8.24937C9.52969 8.3689 9.63519 8.53135 9.69598 8.70871C9.75677 8.53135 9.86227 8.3689 9.99976 8.24939C10.0665 8.19139 10.1404 8.13016 10.2185 8.06535C10.4136 7.9036 10.6348 7.72029 10.8065 7.53616C11.006 7.32235 11.0323 7.21911 11.0349 7.20651V7.01611H8.35712V7.20651C8.35969 7.21911 8.38597 7.32232 8.58543 7.53616ZM8.35712 10.9278V11.1177H11.0349V10.9282C11.0317 10.9141 11.0027 10.8087 10.7997 10.5924C10.6254 10.4066 10.4027 10.2221 10.2062 10.0594C10.1269 9.99373 10.052 9.93168 9.98476 9.87323C9.83884 9.74641 9.7464 9.57903 9.6939 9.41207C9.63549 9.5805 9.53696 9.73129 9.4072 9.84408C9.35315 9.89108 9.2921 9.94249 9.22659 9.99769C9.03408 10.1598 8.79449 10.3616 8.6103 10.5605C8.38911 10.7993 8.35996 10.9138 8.35712 10.9278Z" fill="#121125"/>
</svg>
