<svg width="18" height="17" viewBox="0 0 18 17" fill="none" xmlns="http://www.w3.org/2000/svg">
<path fill-rule="evenodd" clip-rule="evenodd" d="M13.5833 0.166992C15.6174 0.166992 17.2732 1.7865 17.3317 3.80642L17.3333 3.91699V8.91699C17.3333 9.37723 16.9602 9.75033 16.5 9.75033C16.0607 9.75033 15.7008 9.41038 15.6689 8.97919L15.6667 8.91699V3.91699C15.6667 2.79668 14.7824 1.8829 13.6737 1.83558L13.5833 1.83366H4.41666C3.29634 1.83366 2.38257 2.71795 2.33525 3.82662L2.33332 3.91699V13.0837C2.33332 14.204 3.21762 15.1178 4.32629 15.1651L4.41666 15.167H9.41666C9.87689 15.167 10.25 15.5401 10.25 16.0003C10.25 16.4396 9.91004 16.7996 9.47885 16.8314L9.41666 16.8337H4.41666C2.38257 16.8337 0.726743 15.2142 0.668255 13.1942L0.666656 13.0837V3.91699C0.666656 1.88291 2.28616 0.227079 4.30609 0.168591L4.41666 0.166992H13.5833ZM13.7917 9.75033C14.2519 9.75033 14.625 10.1234 14.625 10.5837V12.4587H16.5C16.9602 12.4587 17.3333 12.8318 17.3333 13.292C17.3333 13.7522 16.9602 14.1253 16.5 14.1253H14.625V16.0003C14.625 16.4606 14.2519 16.8337 13.7917 16.8337C13.3314 16.8337 12.9583 16.4606 12.9583 16.0003V14.1253H11.0833C10.6231 14.1253 10.25 13.7522 10.25 13.292C10.25 12.8318 10.6231 12.4587 11.0833 12.4587H12.9583V10.5837C12.9583 10.1234 13.3314 9.75033 13.7917 9.75033ZM10.1742 6.77999L10.2401 6.82622L11.5833 7.83366C11.9515 8.1098 12.0261 8.63214 11.75 9.00033C11.4877 9.35011 11.0031 9.43494 10.6397 9.20579L10.5833 9.16699L9.56332 8.40199L9.09541 8.98824L10.3333 9.91699C10.7015 10.1931 10.7761 10.7155 10.5 11.0837C10.2377 11.4334 9.75313 11.5183 9.38966 11.2891L9.33332 11.2503L6.9826 9.48728C6.81477 9.36141 6.58241 9.38112 6.43791 9.52599L6.4037 9.56481L4.24112 12.3453C3.95856 12.7086 3.435 12.774 3.07171 12.4915C2.72658 12.223 2.65026 11.7371 2.88575 11.3777L2.92553 11.322L5.08812 8.54157C5.72805 7.7188 6.86449 7.50563 7.74975 8.0022L8.51317 7.04639C8.91784 6.53946 9.63891 6.42931 10.1742 6.77999ZM12.3334 3.50033C13.2538 3.50033 14 4.24652 14 5.16699C14 6.08747 13.2538 6.83366 12.3334 6.83366C11.4129 6.83366 10.6667 6.08747 10.6667 5.16699C10.6667 4.24652 11.4129 3.50033 12.3334 3.50033Z" fill="#9CA3AF"/>
</svg>
