<svg width="20" height="20" viewBox="0 0 20 20" fill="none" xmlns="http://www.w3.org/2000/svg">
<g id="Vector">
<path d="M15.4222 19.9938C10.4235 19.9938 5.42445 19.9959 0.425118 20C0.152411 20 0.044039 19.9876 0.0449273 19.6536C0.0579556 13.2193 0.0579556 6.78659 0.0449273 0.355319C0.0449273 0.0266489 0.139087 0 0.420677 0C3.9108 0.0106596 7.4018 0.00710637 10.8919 0.00710637C12.5436 1.66052 14.1928 3.31098 15.8397 4.95847C16.0352 5.1539 16.0813 5.3813 16.0796 5.64335C16.0725 6.63291 16.0796 7.62247 16.0796 8.61204C16.0796 9.20542 16.0947 9.21963 16.6658 9.2223C17.2717 9.2223 17.8775 9.23384 18.4824 9.2223C19.178 9.20808 19.6781 9.48879 19.9552 10.1355V15.9982C19.6621 16.66 19.1398 16.9256 18.4336 16.9061C17.8437 16.891 17.2539 16.9016 16.665 16.9061C16.1062 16.9061 16.0831 16.9327 16.0796 17.4737C16.0796 17.9303 16.0662 18.3877 16.0796 18.8443C16.0982 19.3649 15.8921 19.7522 15.4222 19.9938ZM1.33029 9.95603C1.33029 12.6647 1.33029 15.3735 1.33029 18.0822C1.33029 18.7155 1.33029 18.7173 1.98141 18.7173C5.85972 18.7173 9.73862 18.7173 13.6181 18.7173C14.9292 18.7173 14.7551 18.887 14.7658 17.5536C14.7702 16.9132 14.7605 16.9052 14.1253 16.9052C10.6467 16.9052 7.16818 16.9052 3.68961 16.9052C2.60589 16.9052 2.10666 16.4157 2.09689 15.3373C2.08623 14.2127 2.09689 13.0873 2.09689 11.9618C2.09689 11.5177 2.08446 11.0735 2.104 10.6294C2.14308 9.73396 2.65119 9.24717 3.54304 9.22851C3.7056 9.22851 3.86905 9.22851 4.0316 9.22851H14.0694C14.7702 9.22851 14.7711 9.22851 14.7711 8.50811C14.7711 7.9014 14.7533 7.2938 14.7773 6.68799C14.7907 6.27937 14.6396 6.12925 14.2337 6.12925C13.3454 6.14701 12.4571 6.15057 11.5688 6.12925C10.4442 6.09816 9.92368 5.55718 9.90946 4.43082C9.8988 3.57273 9.90946 2.71375 9.90946 1.85476C9.90946 1.31201 9.8766 1.28448 9.32052 1.28359C6.84869 1.28359 4.37656 1.28359 1.90413 1.28359C1.36138 1.28359 1.33562 1.31024 1.33473 1.86986C1.33177 4.56555 1.33029 7.26064 1.33029 9.95514V9.95603ZM16.0192 12.9629C16.2945 13.0517 16.3425 13.2241 16.4251 13.3564C16.7165 13.8183 17.0031 14.2838 17.285 14.7528C17.5017 15.1126 17.8437 15.0193 18.1591 14.9998C18.3856 14.9838 18.4336 14.8026 18.4336 14.6116C18.4336 13.5456 18.4336 12.4797 18.4336 11.4191C18.4336 11.0424 18.1609 11.1082 17.9308 11.101C17.7007 11.0939 17.4778 11.0895 17.4866 11.4288C17.4973 11.873 17.492 12.3171 17.4866 12.7613C17.4866 12.8856 17.5497 13.0704 17.3978 13.1166C17.2459 13.1628 17.1997 12.9718 17.1313 12.8679C16.816 12.3678 16.4988 11.8685 16.2048 11.3578C15.9739 10.9554 15.6043 11.1028 15.2917 11.1241C14.9603 11.1481 15.074 11.4608 15.0714 11.6571C15.0607 12.5881 15.0714 13.5225 15.0642 14.4499C15.0642 14.7839 15.1104 15.0238 15.5359 15.0273C15.9614 15.0309 16.0272 14.815 16.0165 14.4677C16.0076 13.9809 16.0192 13.4968 16.0192 12.962V12.9629ZM12.6978 15.0948C13.0344 15.1158 13.3693 15.0336 13.6581 14.8594C14.2799 14.4695 14.4309 13.8485 14.4709 13.177C14.5464 11.8907 13.8997 11.0824 12.7653 11.0451C11.4862 10.9989 10.8111 11.69 10.804 13.0526C10.804 13.1711 10.8084 13.2895 10.8173 13.408C10.8955 14.4961 11.5315 15.0868 12.6978 15.0904V15.0948ZM8.76445 15.0948C8.80048 15.0984 8.83679 15.0984 8.87282 15.0948C9.61988 15.0646 10.1378 14.6507 10.2319 14.004C10.3332 13.3076 10.0205 12.8537 9.24857 12.5898C8.96876 12.4948 8.68095 12.4255 8.40202 12.3296C8.25457 12.2789 8.13553 12.1741 8.16929 11.9964C8.20304 11.8188 8.33629 11.73 8.51661 11.7131C8.7831 11.6838 8.95632 11.8179 9.1171 12.0142C9.25568 12.1821 9.94233 12.2452 10.0205 12.0968C10.1697 11.8108 9.96454 11.5949 9.80109 11.3862C9.69135 11.2641 9.54942 11.1754 9.39159 11.1304C9.03627 11.0042 8.66229 11.0264 8.29365 11.0549C7.7207 11.1002 7.3032 11.4457 7.20549 11.9369C7.09889 12.4699 7.34051 12.9141 7.91613 13.1681C8.21104 13.2996 8.5326 13.3724 8.83462 13.4897C9.10111 13.5945 9.30631 13.7677 9.18994 14.0973C9.09401 14.3638 8.72625 14.4686 8.42956 14.3344C8.24035 14.2456 8.16307 14.0768 8.05292 13.9152C7.81752 13.5598 7.46754 13.7455 7.21171 13.8352C6.94522 13.9312 7.12288 14.1905 7.20549 14.3682C7.49063 14.9847 8.0396 15.101 8.76445 15.0868V15.0948ZM14.3394 4.94515L14.4353 4.80213C13.4218 3.81435 12.4109 2.82212 11.3903 1.84055C11.1717 1.63091 11.1522 1.84677 11.1513 1.996C11.1513 2.8239 11.1513 3.65179 11.1593 4.48323C11.1593 4.7817 11.3263 4.94781 11.6345 4.9487L14.3394 4.94515ZM6.32519 12.7275H6.36161V11.5319C6.36161 11.0522 6.00629 11.1215 5.70338 11.0984C5.35872 11.0717 5.32319 11.2672 5.32763 11.5425C5.33651 12.2363 5.33296 12.93 5.32763 13.6238C5.32763 13.8814 5.29476 14.1568 4.98652 14.2207C4.70227 14.2811 4.63653 14.0431 4.53616 13.8379C4.34251 13.4328 4.01473 13.7215 3.75801 13.7491C3.50129 13.7766 3.56702 13.9942 3.61322 14.1746C3.78377 14.8372 4.26078 15.1286 5.12332 15.0913C5.78066 15.0628 6.25412 14.6622 6.31986 14.0138C6.36072 13.5909 6.32519 13.1548 6.32519 12.7275Z" fill="#F9FAFB"/>
<path d="M13.4138 13.0989C13.4138 13.1877 13.42 13.2765 13.4138 13.3653C13.3712 13.9339 13.0833 14.2536 12.6231 14.2483C12.1905 14.243 11.8848 13.9188 11.8493 13.3876C11.8257 13.1081 11.8364 12.8267 11.8813 12.5499C11.9612 12.1128 12.2589 11.8721 12.6409 11.8846C13.0851 11.8988 13.3001 12.1768 13.3907 12.5703C13.4182 12.7452 13.4328 12.9218 13.4342 13.0989H13.4138Z" fill="#F9FAFB"/>
</g>
</svg>
