<svg version="1.1" xmlns="http://www.w3.org/2000/svg" width="100" height="100">
<path d="M0 0 C7.23214045 4.3100635 11.59755822 10.13237059 14.4375 18 C15.86225326 28.63594878 14.62565457 37.04858144 8.4375 46 C6.4044417 48.49595864 4.32430329 50.85864121 2.07421875 53.16015625 C-1.72777073 57.43399168 -0.92080348 63.42970364 -1.18359375 68.84765625 C-1.5625 72 -1.5625 72 -3.5625 74 C-9.48746011 76.53926862 -15.36096032 77.01000043 -21.4375 74.875 C-24.5625 73 -24.5625 73 -26 70.375 C-26.58162426 66.88525444 -26.59685987 63.76282648 -26.33984375 60.24609375 C-26.82329477 55.36917556 -30.43610277 51.84905011 -33.5 48.25 C-40.2658817 39.75215227 -42.51701903 32.76978293 -42.00390625 21.8828125 C-41.03487839 13.35879755 -37.24689198 7.94466012 -30.8203125 2.47265625 C-21.8877495 -3.35360024 -9.81690646 -4.45675508 0 0 Z M-32.25 11.07421875 C-36.85613442 18.1535333 -37.23794188 24.6662392 -36.5625 33 C-34.88314151 39.52453467 -29.87705087 44.49470829 -25.5859375 49.484375 C-23.8632337 51.62611485 -22.6508516 53.49562104 -21.5625 56 C-12.12879497 57.25160594 -12.12879497 57.25160594 -3.6328125 54.5 C-2.45137026 52.50444503 -2.45137026 52.50444503 -1.56640625 50.28515625 C-0.40387795 47.63893425 1.07466802 46.02329495 3.0625 43.9375 C8.81734355 37.44292711 10.0053066 31.72145666 9.7890625 23.16015625 C9.01677463 16.21814636 5.75925223 11.45542047 0.4375 7 C-5.10817516 2.63425572 -10.04787054 2.26881502 -17.046875 2.4921875 C-23.40388493 3.41042227 -28.18936935 6.08302691 -32.25 11.07421875 Z M-21.5625 60 C-21.5625 61.32 -21.5625 62.64 -21.5625 64 C-20.9025 64 -20.2425 64 -19.5625 64 C-19.748125 64.804375 -19.93375 65.60875 -20.125 66.4375 C-20.269375 67.283125 -20.41375 68.12875 -20.5625 69 C-19.47697634 70.31262571 -19.47697634 70.31262571 -16.83984375 70.09765625 C-15.73769531 70.08605469 -14.63554688 70.07445313 -13.5 70.0625 C-12.39527344 70.05347656 -11.29054688 70.04445313 -10.15234375 70.03515625 C-9.29769531 70.02355469 -8.44304688 70.01195313 -7.5625 70 C-7.2325 69.34 -6.9025 68.68 -6.5625 68 C-10.1925 67.67 -13.8225 67.34 -17.5625 67 C-17.5625 66.34 -17.5625 65.68 -17.5625 65 C-11.6225 64.505 -11.6225 64.505 -5.5625 64 C-5.5625 62.68 -5.5625 61.36 -5.5625 60 C-10.8425 60 -16.1225 60 -21.5625 60 Z " fill="#000000" transform="translate(63.5625,20)"/>
<path d="M0 0 C-0.31767632 5.40049736 -3.19996327 7.52337065 -7 11 C-8.32 10.34 -9.64 9.68 -11 9 C-8.823805 3.65843044 -5.92169235 0 0 0 Z " fill="#000000" transform="translate(82,14)"/>
<path d="M0 0 C5.40049736 0.31767632 7.52337065 3.19996327 11 7 C10.34 8.32 9.68 9.64 9 11 C5.17035345 9.43977363 2.67809511 7.12444429 0 4 C0 2.68 0 1.36 0 0 Z " fill="#000000" transform="translate(18,14)"/>
<path d="M0 0 C3.56050965 0.30518654 5.00035037 1.00028808 7.8125 3.3125 C10 6 10 6 10 10 C7.087425 9.91433603 5.43201976 9.42089045 3.33203125 7.375 C1.83908228 5.61608625 0.39563738 3.83686981 -1 2 C-0.67 1.34 -0.34 0.68 0 0 Z " fill="#000000" transform="translate(72,68)"/>
<path d="M0 0 C-0.30518654 3.56050965 -1.00028808 5.00035037 -3.3125 7.8125 C-6 10 -6 10 -10 10 C-9.69481346 6.43949035 -8.99971192 4.99964963 -6.6875 2.1875 C-4 0 -4 0 0 0 Z " fill="#000000" transform="translate(28,68)"/>
<path d="M0 0 C3.96 0 7.92 0 12 0 C12 1.32 12 2.64 12 4 C8.04 4 4.08 4 0 4 C0 2.68 0 1.36 0 0 Z " fill="#000000" transform="translate(82,44)"/>
<path d="M0 0 C3.96 0 7.92 0 12 0 C12 1.32 12 2.64 12 4 C8.04 4 4.08 4 0 4 C0 2.68 0 1.36 0 0 Z " fill="#000000" transform="translate(6,44)"/>
<path d="M0 0 C0.99 0.33 1.98 0.66 3 1 C3 4.96 3 8.92 3 13 C1.68 13 0.36 13 -1 13 C-1.02686553 11.02090602 -1.04633375 9.04171029 -1.0625 7.0625 C-1.07410156 5.96035156 -1.08570313 4.85820312 -1.09765625 3.72265625 C-1 1 -1 1 0 0 Z " fill="#000000" transform="translate(49,1)"/>
</svg>
