<svg width="20" height="21" viewBox="0 0 20 21" fill="none" xmlns="http://www.w3.org/2000/svg">
<g id="mail">
<path id="Icon" fill-rule="evenodd" clip-rule="evenodd" d="M2.58873 5.20642L9.99992 10.3942L17.4111 5.20642C17.2733 4.93389 16.9899 4.74479 16.6666 4.74479H3.33325C3.00995 4.74479 2.72655 4.93389 2.58873 5.20642ZM17.4999 7.17867L10.4778 12.0942C10.1909 12.295 9.80897 12.295 9.52203 12.0942L2.49992 7.17867V15.5781C2.49992 16.0346 2.87682 16.4115 3.33325 16.4115H16.6666C17.123 16.4115 17.4999 16.0346 17.4999 15.5781V7.17867ZM0.833252 5.57812C0.833252 4.20122 1.95635 3.07812 3.33325 3.07812H16.6666C18.0435 3.07812 19.1666 4.20122 19.1666 5.57812V15.5781C19.1666 16.955 18.0435 18.0781 16.6666 18.0781H3.33325C1.95635 18.0781 0.833252 16.955 0.833252 15.5781V5.57812Z" fill="#F9FAFB"/>
</g>
</svg>
