<svg width="12" height="19" viewBox="0 0 12 19" fill="none" xmlns="http://www.w3.org/2000/svg">
<path fill-rule="evenodd" clip-rule="evenodd" d="M3.87868 1.37868C4.44129 0.81607 5.20435 0.5 6 0.5C6.79565 0.5 7.55871 0.81607 8.12132 1.37868C8.68393 1.94129 9 2.70435 9 3.5V9.5C9 10.2956 8.68393 11.0587 8.12132 11.6213C7.55871 12.1839 6.79565 12.5 6 12.5C5.20435 12.5 4.44129 12.1839 3.87868 11.6213C3.31607 11.0587 3 10.2956 3 9.5V3.5C3 2.70435 3.31607 1.94129 3.87868 1.37868ZM6 2C5.60218 2 5.22064 2.15804 4.93934 2.43934C4.65803 2.72064 4.5 3.10217 4.5 3.5V9.5C4.5 9.89783 4.65804 10.2794 4.93934 10.5607C5.22064 10.842 5.60217 11 6 11C6.39783 11 6.77936 10.842 7.06066 10.5607C7.34196 10.2794 7.5 9.89783 7.5 9.5V3.5C7.5 3.10217 7.34196 2.72064 7.06066 2.43934C6.77936 2.15804 6.39782 2 6 2Z" fill="#F9FAFB"/>
<path fill-rule="evenodd" clip-rule="evenodd" d="M1.5 8C1.5 7.58579 1.16421 7.25 0.75 7.25C0.335786 7.25 0 7.58579 0 8V9.5C4.47035e-08 11.0913 0.632141 12.6174 1.75736 13.7426C2.70433 14.6896 3.93525 15.2873 5.25 15.453V17H3C2.58579 17 2.25 17.3358 2.25 17.75C2.25 18.1642 2.58579 18.5 3 18.5H6H9C9.41421 18.5 9.75 18.1642 9.75 17.75C9.75 17.3358 9.41421 17 9 17H6.75V15.453C8.06475 15.2873 9.29567 14.6896 10.2426 13.7426C11.3679 12.6174 12 11.0913 12 9.5V8C12 7.58579 11.6642 7.25 11.25 7.25C10.8358 7.25 10.5 7.58579 10.5 8V9.5C10.5 10.6935 10.0259 11.8381 9.18198 12.682C8.33807 13.5259 7.19347 14 6 14C4.80653 14 3.66193 13.5259 2.81802 12.682C1.97411 11.8381 1.5 10.6935 1.5 9.5V8ZM6 14C5.58579 14 5.25 14.3358 5.25 14.75V15.453C5.49747 15.4841 5.74792 15.5 6 15.5C6.25208 15.5 6.50253 15.4841 6.75 15.453V14.75C6.75 14.3358 6.41421 14 6 14ZM6.75 17V17.75C6.75 18.1642 6.41421 18.5 6 18.5C5.58579 18.5 5.25 18.1642 5.25 17.75V17H6.75Z" fill="#F9FAFB"/>
<path d="M6.75 14.75C6.75 14.3358 6.41421 14 6 14C5.58579 14 5.25 14.3358 5.25 14.75V15.453C5.49747 15.4841 5.74792 15.5 6 15.5C6.25208 15.5 6.50253 15.4841 6.75 15.453V14.75Z" fill="#F9FAFB"/>
<path d="M6 18.5C6.41421 18.5 6.75 18.1642 6.75 17.75V17H5.25V17.75C5.25 18.1642 5.58579 18.5 6 18.5Z" fill="#F9FAFB"/>
</svg>
