<svg width="20" height="21" viewBox="0 0 20 21" fill="none" xmlns="http://www.w3.org/2000/svg">
<g id="monitor">
<g id="Icon">
<path fill-rule="evenodd" clip-rule="evenodd" d="M3.33398 3.41276C2.87375 3.41276 2.50065 3.78586 2.50065 4.24609V12.5794C2.50065 13.0397 2.87375 13.4128 3.33398 13.4128H10.0007C9.54041 13.4128 9.16732 13.7859 9.16732 14.2461V15.0794H3.33398C1.95327 15.0794 0.833984 13.9601 0.833984 12.5794V4.24609C0.833984 2.86538 1.95327 1.74609 3.33398 1.74609H16.6673C18.048 1.74609 19.1673 2.86538 19.1673 4.24609V12.5794C19.1673 13.9601 18.048 15.0794 16.6673 15.0794H10.834V14.2461C10.834 13.7859 10.4609 13.4128 10.0007 13.4128H16.6673C17.1276 13.4128 17.5006 13.0397 17.5006 12.5794V4.24609C17.5006 3.78586 17.1276 3.41276 16.6673 3.41276H3.33398ZM10.834 16.7461V15.0794H9.16732V16.7461H6.66732C6.20708 16.7461 5.83398 17.1192 5.83398 17.5794C5.83398 18.0397 6.20708 18.4128 6.66732 18.4128H10.0007H13.334C13.7942 18.4128 14.1673 18.0397 14.1673 17.5794C14.1673 17.1192 13.7942 16.7461 13.334 16.7461H10.834ZM10.834 16.7461V17.5794C10.834 18.0397 10.4609 18.4128 10.0007 18.4128C9.54041 18.4128 9.16732 18.0397 9.16732 17.5794V16.7461H10.834Z" fill="#F9FAFB"/>
<path d="M10.834 14.2461C10.834 13.7859 10.4609 13.4128 10.0007 13.4128C9.54041 13.4128 9.16732 13.7859 9.16732 14.2461V15.0794H10.834V14.2461Z" fill="#F9FAFB"/>
<path d="M10.0007 18.4128C10.4609 18.4128 10.834 18.0397 10.834 17.5794V16.7461H9.16732V17.5794C9.16732 18.0397 9.54041 18.4128 10.0007 18.4128Z" fill="#F9FAFB"/>
</g>
</g>
</svg>
