<svg width="20" height="21" viewBox="0 0 20 21" fill="none" xmlns="http://www.w3.org/2000/svg">
<g id="package">
<g id="Icon">
<path fill-rule="evenodd" clip-rule="evenodd" d="M10 1.41309C9.56187 1.41309 9.13142 1.52824 8.75181 1.74699L6.08861 3.26881C5.9135 3.30346 5.75017 3.39391 5.62718 3.53249L2.9199 5.0795L2.91669 5.08136C2.60837 5.25936 2.34247 5.50067 2.13592 5.78834C2.08562 5.83865 2.04099 5.89627 2.00368 5.96077C1.97154 6.01633 1.94653 6.07406 1.92837 6.13289C1.75696 6.47745 1.66708 6.85761 1.66669 7.24386V13.9122C1.66714 14.3506 1.78287 14.7812 2.00226 15.1608C2.22166 15.5403 2.53701 15.8555 2.91669 16.0747L2.9199 16.0766L8.75002 19.4081L8.75156 19.409C9.0159 19.5613 9.30489 19.6634 9.60397 19.7114C9.72178 19.7752 9.85667 19.8114 10 19.8114C10.1434 19.8114 10.2783 19.7752 10.3961 19.7114C10.6952 19.6634 10.9842 19.5613 11.2485 19.4089L11.25 19.4081L17.0801 16.0766L17.0834 16.0747C17.463 15.8555 17.7784 15.5403 17.9978 15.1608C18.2172 14.7812 18.3329 14.3506 18.3334 13.9122V7.24386C18.333 6.85761 18.2431 6.47744 18.0717 6.13288C18.0535 6.07405 18.0285 6.01633 17.9964 5.96077C17.959 5.89628 17.9144 5.83865 17.8641 5.78835C17.6576 5.50067 17.3917 5.25936 17.0834 5.08135L11.25 1.74802L11.2483 1.74702C10.8687 1.52825 10.4382 1.41309 10 1.41309ZM3.33335 7.69266L2.30775 7.09938C1.96492 6.90107 1.8163 6.49591 1.92837 6.13289C1.95152 6.08636 1.97616 6.04047 2.00226 5.99531C2.0435 5.92398 2.08812 5.85492 2.13592 5.78834C2.39628 5.52792 2.8084 5.46356 3.14229 5.6567L4.19917 6.26807L3.75002 6.52473L3.74871 6.52549C3.62273 6.59853 3.51809 6.7033 3.44521 6.82938C3.37214 6.9558 3.33357 7.09919 3.33335 7.2452V7.69266ZM9.16669 11.067L3.33335 7.69266V13.9109C3.33357 14.0569 3.37214 14.2003 3.44521 14.3267C3.51809 14.4528 3.62274 14.5576 3.74871 14.6306L3.75002 14.6314L9.16669 17.7266V11.067ZM10.8334 11.067V10.578C10.8334 10.1178 10.4603 9.74471 10 9.74471C9.53978 9.74471 9.16669 10.1178 9.16669 10.578V11.067L9.58275 11.3077C9.84089 11.457 10.1591 11.457 10.4173 11.3077L10.8334 11.067ZM10.8334 11.067L16.6667 7.69266V13.9105C16.6665 14.0567 16.628 14.2002 16.5548 14.3267C16.482 14.4528 16.3773 14.5576 16.2513 14.6306L16.25 14.6314L10.8334 17.7266V11.067ZM6.29168 5.07236L12.0888 8.41537L10 9.62366L4.19917 6.26807L6.29168 5.07236ZM7.96744 4.11479L6.29168 5.07236L5.83372 4.80828C5.43503 4.57836 5.2982 4.06878 5.52812 3.67008C5.55699 3.62002 5.59027 3.57408 5.62718 3.53249L6.08861 3.26881C6.27954 3.23104 6.48447 3.25961 6.66632 3.36448L7.96744 4.11479ZM7.96744 4.11479L9.58014 3.19325L9.58335 3.1914C9.71004 3.11826 9.85374 3.07975 10 3.07975C10.1463 3.07975 10.29 3.11826 10.4167 3.19141L15.8009 6.26807L13.7544 7.45191L7.96744 4.11479Z" fill="#F9FAFB"/>
<path d="M3.74871 6.52549L3.75002 6.52473L4.19917 6.26807L3.14229 5.6567C2.8084 5.46356 2.39628 5.52792 2.13592 5.78834C2.08812 5.85492 2.0435 5.92398 2.00226 5.99531C1.97616 6.04047 1.95152 6.08636 1.92837 6.13289C1.8163 6.49591 1.96492 6.90107 2.30775 7.09938L3.33335 7.69266V7.2452C3.33357 7.09919 3.37214 6.9558 3.44521 6.82938C3.51809 6.7033 3.62273 6.59853 3.74871 6.52549Z" fill="#F9FAFB"/>
<path d="M5.52812 3.67008C5.2982 4.06878 5.43503 4.57836 5.83372 4.80828L6.29168 5.07236L7.96744 4.11479L6.66632 3.36448C6.48447 3.25961 6.27954 3.23104 6.08861 3.26881L5.62718 3.53249C5.59027 3.57408 5.55699 3.62002 5.52812 3.67008Z" fill="#F9FAFB"/>
<path d="M9.58275 11.3077C9.84089 11.457 10.1591 11.457 10.4173 11.3077L10.8334 11.067V10.578C10.8334 10.1178 10.4603 9.74471 10 9.74471C9.53978 9.74471 9.16669 10.1178 9.16669 10.578V11.067L9.58275 11.3077Z" fill="#F9FAFB"/>
</g>
</g>
</svg>
