<svg width="20" height="20" viewBox="0 0 20 20" fill="none" xmlns="http://www.w3.org/2000/svg">
<g id="refresh-ccw">
<path id="Icon" fill-rule="evenodd" clip-rule="evenodd" d="M7.68912 1.9971C9.04138 1.60596 10.4707 1.56375 11.8437 1.8744C13.2166 2.18506 14.4886 2.83845 15.5407 3.77362C16.5929 4.70879 17.391 5.89526 17.8606 7.22231C18.0141 7.65618 17.7869 8.13237 17.353 8.2859C16.9191 8.43944 16.4429 8.21218 16.2894 7.7783C15.9137 6.71666 15.2752 5.76749 14.4335 5.01935C13.5918 4.27122 12.5742 3.7485 11.4759 3.49998C10.3775 3.25145 9.23403 3.28522 8.15222 3.59814C7.07042 3.91105 6.08551 4.49291 5.2894 5.28941C5.28325 5.29557 5.27699 5.30164 5.27065 5.3076L2.93713 7.50031H5.83333C6.29357 7.50031 6.66667 7.8734 6.66667 8.33364C6.66667 8.79388 6.29357 9.16697 5.83333 9.16697H0.833333C0.373096 9.16697 0 8.79388 0 8.33364V3.33364C0 2.8734 0.373096 2.50031 0.833333 2.50031C1.29357 2.50031 1.66667 2.8734 1.66667 3.33364V6.40709L4.12008 4.10173C5.11355 3.11095 6.34116 2.387 7.68912 1.9971ZM13.3333 11.667C13.3333 11.2067 13.7064 10.8336 14.1667 10.8336H19.1667C19.6269 10.8336 20 11.2067 20 11.667V16.667C20 17.1272 19.6269 17.5003 19.1667 17.5003C18.7064 17.5003 18.3333 17.1272 18.3333 16.667V13.5935L15.8799 15.8989C14.8864 16.8897 13.6588 17.6136 12.3109 18.0035C10.9586 18.3947 9.52932 18.4369 8.15633 18.1262C6.78335 17.8156 5.51144 17.1622 4.45928 16.227C3.40712 15.2918 2.609 14.1054 2.1394 12.7783C1.98587 12.3444 2.21313 11.8682 2.647 11.7147C3.08088 11.5612 3.55706 11.7884 3.7106 12.2223C4.08628 13.2839 4.72477 14.2331 5.5665 14.9813C6.40823 15.7294 7.42576 16.2521 8.52414 16.5006C9.62253 16.7492 10.766 16.7154 11.8478 16.4025C12.9296 16.0896 13.9145 15.5077 14.7106 14.7112C14.7143 14.7075 14.718 14.7038 14.7218 14.7002C14.7243 14.6978 14.7268 14.6954 14.7294 14.693L17.0629 12.5003H14.1667C13.7064 12.5003 13.3333 12.1272 13.3333 11.667Z" fill="#F9FAFB"/>
</g>
</svg>
