<svg width="18" height="15" viewBox="0 0 18 15" fill="none" xmlns="http://www.w3.org/2000/svg">
<path fill-rule="evenodd" clip-rule="evenodd" d="M6.92021 0.297293C8.13724 -0.0547341 9.42361 -0.0927257 10.6593 0.186863C11.895 0.466453 13.0397 1.05451 13.9866 1.89616C14.9336 2.73782 15.6519 3.80564 16.0745 4.99998C16.2127 5.39047 16.0082 5.81904 15.6177 5.95722C15.2272 6.0954 14.7986 5.89086 14.6605 5.50038C14.3224 4.5449 13.7477 3.69064 12.9902 3.01732C12.2326 2.344 11.3168 1.87355 10.3283 1.64988C9.33972 1.42621 8.31063 1.4566 7.337 1.73823C6.36338 2.01985 5.47696 2.54352 4.76046 3.26038C4.75492 3.26592 4.74929 3.27138 4.74358 3.27674L2.64341 5.25018H5.25C5.66421 5.25018 6 5.58597 6 6.00018C6 6.41439 5.66421 6.75018 5.25 6.75018H0.75C0.335786 6.75018 0 6.41439 0 6.00018V1.50018C0 1.08597 0.335786 0.750179 0.75 0.750179C1.16421 0.750179 1.5 1.08597 1.5 1.50018V4.26628L3.70807 2.19146C4.6022 1.29976 5.70705 0.648203 6.92021 0.297293ZM12 9.00018C12 8.58596 12.3358 8.25018 12.75 8.25018H17.25C17.6642 8.25018 18 8.58596 18 9.00018V13.5002C18 13.9144 17.6642 14.2502 17.25 14.2502C16.8358 14.2502 16.5 13.9144 16.5 13.5002V10.7341L14.2919 12.8089C13.3978 13.7006 12.2929 14.3522 11.0798 14.7031C9.86276 15.0551 8.57639 15.0931 7.3407 14.8135C6.10502 14.5339 4.9603 13.9458 4.01335 13.1042C3.06641 12.2625 2.3481 11.1947 1.92546 10.0004C1.78728 9.60989 1.99182 9.18132 2.3823 9.04314C2.77279 8.90496 3.20136 9.1095 3.33954 9.49998C3.67765 10.4555 4.25229 11.3097 5.00985 11.983C5.7674 12.6564 6.68318 13.1268 7.67173 13.3505C8.66028 13.5741 9.68937 13.5438 10.663 13.2621C11.6366 12.9805 12.523 12.4568 13.2395 11.74C13.2429 11.7366 13.2462 11.7333 13.2496 11.7301C13.2519 11.7279 13.2541 11.7258 13.2564 11.7236L15.3566 9.75018H12.75C12.3358 9.75018 12 9.41439 12 9.00018Z" fill="#F9FAFB"/>
</svg>
