<svg width="20" height="20" viewBox="0 0 20 20" fill="none" xmlns="http://www.w3.org/2000/svg">
<path fill-rule="evenodd" clip-rule="evenodd" d="M13.3333 4.16732C13.3333 3.24684 14.0795 2.50065 15 2.50065C15.9205 2.50065 16.6667 3.24684 16.6667 4.16732C16.6667 5.08779 15.9205 5.83398 15 5.83398C14.4021 5.83398 13.8777 5.51911 13.5836 5.04613C13.5766 5.03251 13.5692 5.019 13.5614 5.00563C13.5535 4.99215 13.5454 4.97898 13.5369 4.96611C13.4071 4.72893 13.3333 4.45674 13.3333 4.16732ZM11.7914 5.07372L12.4216 4.70591C12.8057 4.4818 13.295 4.59945 13.5369 4.96611C13.5517 4.99325 13.5673 5.01993 13.5836 5.04613C13.784 5.43716 13.6458 5.92122 13.2617 6.14539L12.6317 6.51303C12.24 6.1176 11.9467 5.62459 11.7914 5.07372ZM7.36828 7.65494L11.7914 5.07372C11.7101 4.78553 11.6667 4.4815 11.6667 4.16732C11.6667 2.32637 13.159 0.833984 15 0.833984C16.8409 0.833984 18.3333 2.32637 18.3333 4.16732C18.3333 6.00827 16.8409 7.50065 15 7.50065C14.0738 7.50065 13.2358 7.12289 12.6317 6.51303L8.20862 9.09425C8.05331 8.54338 7.75996 8.05037 7.36828 7.65494ZM6.41641 9.12184C6.21595 8.73081 6.35418 8.24674 6.73831 8.02258L7.36828 7.65494C6.7642 7.04508 5.92621 6.66732 5 6.66732C3.15905 6.66732 1.66666 8.1597 1.66666 10.0007C1.66666 11.8416 3.15905 13.334 5 13.334C5.92639 13.334 6.76451 12.9561 7.36862 12.346L11.7924 14.9239C11.7105 15.2132 11.6667 15.5185 11.6667 15.834C11.6667 17.6749 13.159 19.1673 15 19.1673C16.8409 19.1673 18.3333 17.6749 18.3333 15.834C18.3333 13.993 16.8409 12.5007 15 12.5007C14.0752 12.5007 13.2383 12.8773 12.6344 13.4855L8.20875 10.9066C8.28991 10.6185 8.33333 10.3147 8.33333 10.0007C8.33333 9.68647 8.28986 9.38244 8.20862 9.09425L7.57835 9.46206C7.19433 9.68616 6.70503 9.56852 6.46313 9.20185C6.44828 9.17472 6.4327 9.14804 6.41641 9.12184ZM6.41642 10.8794C6.21584 11.2707 6.35434 11.755 6.73877 11.979L7.36862 12.346C7.76024 11.9505 8.05352 11.4575 8.20875 10.9066L7.5779 10.539C7.19388 10.3152 6.7049 10.433 6.46313 10.7994C6.59289 10.5623 6.66666 10.2901 6.66666 10.0007C6.66666 9.71123 6.59289 9.43904 6.46313 9.20185C6.45464 9.18899 6.44646 9.17582 6.43859 9.16234C6.43079 9.14896 6.42339 9.13546 6.41641 9.12184C6.12233 8.64886 5.59794 8.33398 5 8.33398C4.07952 8.33398 3.33333 9.08018 3.33333 10.0007C3.33333 10.9211 4.07952 11.6673 5 11.6673C5.59794 11.6673 6.12234 11.3524 6.41642 10.8794ZM6.41642 10.8794C6.4327 10.8533 6.44828 10.8266 6.46313 10.7994C6.45454 10.8125 6.44627 10.8258 6.43832 10.8394C6.43062 10.8526 6.42332 10.866 6.41642 10.8794ZM13.6147 14.9069C13.7808 14.5249 13.6383 14.0705 13.2696 13.8556L12.6344 13.4855C12.2423 13.8805 11.9484 14.3732 11.7924 14.9239L12.4304 15.2957C12.798 15.5098 13.2616 15.4111 13.5127 15.081C13.398 15.3072 13.3333 15.563 13.3333 15.834C13.3333 16.7545 14.0795 17.5006 15 17.5006C15.9205 17.5006 16.6667 16.7545 16.6667 15.834C16.6667 14.9135 15.9205 14.1673 15 14.1673C14.4226 14.1673 13.9138 14.4609 13.6147 14.9069ZM13.6147 14.9069C13.6017 14.9369 13.5868 14.9663 13.57 14.9952C13.5525 15.0253 13.5333 15.054 13.5127 15.081C13.5433 15.0208 13.5774 14.9627 13.6147 14.9069Z" fill="#F9FAFB"/>
<path d="M6.46313 9.20185C6.70503 9.56852 7.19433 9.68616 7.57835 9.46206L8.20862 9.09425C8.05331 8.54338 7.75996 8.05037 7.36828 7.65494L6.73831 8.02258C6.35418 8.24674 6.21595 8.73081 6.41641 9.12184C6.4327 9.14804 6.44828 9.17472 6.46313 9.20185Z" fill="#F9FAFB"/>
<path d="M6.41642 10.8794C6.21584 11.2707 6.35434 11.755 6.73877 11.979L7.36862 12.346C7.76024 11.9505 8.05352 11.4575 8.20875 10.9066L7.5779 10.539C7.19388 10.3152 6.7049 10.433 6.46313 10.7994C6.44828 10.8266 6.4327 10.8533 6.41642 10.8794Z" fill="#F9FAFB"/>
<path d="M13.6147 14.9069C13.7808 14.5249 13.6383 14.0705 13.2696 13.8556L12.6344 13.4855C12.2423 13.8805 11.9484 14.3732 11.7924 14.9239L12.4304 15.2957C12.798 15.5098 13.2616 15.4111 13.5127 15.081C13.5433 15.0208 13.5774 14.9627 13.6147 14.9069Z" fill="#F9FAFB"/>
<path d="M12.4216 4.70591L11.7914 5.07372C11.9467 5.62459 12.24 6.1176 12.6317 6.51303L13.2617 6.14539C13.6458 5.92122 13.784 5.43716 13.5836 5.04613C13.5673 5.01993 13.5517 4.99325 13.5369 4.96611C13.295 4.59945 12.8057 4.4818 12.4216 4.70591Z" fill="#F9FAFB"/>
</svg>
