<svg width="20" height="21" viewBox="0 0 20 21" fill="none" xmlns="http://www.w3.org/2000/svg">
<path d="M10.0151 1.79688C8.14839 2.72271 6.66667 3.46354 2.5 4.29688C2.5 5.24438 2.5 8.21514 2.5 9.20431C2.5 14.7601 7.2225 17.5377 10 18.4635C12.7775 17.5377 17.5 14.7601 17.5 9.20431C17.5 8.18347 17.5 5.29188 17.5 4.29688C13.3333 3.46354 11.8517 2.72271 10.0151 1.79688ZM10.0051 6.38021C10.9934 6.38021 11.7967 7.18346 11.7967 8.17179C11.7967 9.16013 10.9926 9.96358 10.0051 9.96358C9.01759 9.96358 8.21411 9.16013 8.21411 8.17179C8.21411 7.18346 9.01675 6.38021 10.0051 6.38021ZM12.9167 13.4635C12.9167 13.6935 12.73 13.8802 12.5 13.8802H7.5C7.27 13.8802 7.08333 13.6935 7.08333 13.4635V13.2111C7.08333 12.0944 7.90076 10.9635 9.46492 10.9635H10.5343C12.0984 10.9635 12.9159 12.0936 12.9159 13.2111V13.4635H12.9167Z" fill="#6B7280"/>
</svg>
