<svg width="24" height="24" viewBox="0 0 24 24" fill="none" xmlns="http://www.w3.org/2000/svg">
<path d="M12 0C5.3724 0 0 5.3724 0 12C0 18.6276 5.3724 24 12 24C18.6276 24 24 18.6276 24 12C24 5.3724 18.6276 0 12 0ZM17.7973 11.2716L15.6372 13.38C15.4788 13.5336 15.4068 13.7568 15.444 13.974L15.9384 16.86C16.038 17.4456 15.4259 17.892 14.9027 17.616L12.3108 16.2516C12.1164 16.1496 11.8847 16.1496 11.6903 16.2516L9.10078 17.6148C8.57518 17.8908 7.96319 17.4432 8.06279 16.8576L8.55718 13.974C8.59438 13.7556 8.52237 13.5336 8.36397 13.38L6.20405 11.2716C5.80685 10.884 6.02523 10.2084 6.57363 10.128L9.56162 9.6936C9.77882 9.6624 9.96716 9.52441 10.0644 9.32761L11.3591 6.70078C11.6219 6.16798 12.3792 6.16798 12.642 6.70078L13.9368 9.32761C14.034 9.52561 14.2224 9.6624 14.4396 9.6936L17.4275 10.128C17.9759 10.2072 18.1945 10.884 17.7973 11.2716Z" fill="#EA580C"/>
</svg>
