<svg width="14" height="15" viewBox="0 0 14 15" fill="none" xmlns="http://www.w3.org/2000/svg">
<path fill-rule="evenodd" clip-rule="evenodd" d="M13 2.25C13.4142 2.25 13.75 2.58579 13.75 3C13.75 3.41421 13.4142 3.75 13 3.75H12.25V12.375C12.25 13.8247 11.0747 15 9.625 15H4.375C2.92525 15 1.75 13.8247 1.75 12.375V3.75H1C0.585786 3.75 0.25 3.41421 0.25 3C0.25 2.58579 0.585786 2.25 1 2.25H13ZM10.75 3.75H3.25V12C3.25 12.8284 3.92157 13.5 4.75 13.5H9.25C10.0784 13.5 10.75 12.8284 10.75 12V3.75ZM5.5 5.25C5.91421 5.25 6.25 5.58579 6.25 6V10.5C6.25 10.9142 5.91421 11.25 5.5 11.25C5.08579 11.25 4.75 10.9142 4.75 10.5V6C4.75 5.58579 5.08579 5.25 5.5 5.25ZM8.5 5.25C8.91421 5.25 9.25 5.58579 9.25 6V10.5C9.25 10.9142 8.91421 11.25 8.5 11.25C8.08579 11.25 7.75 10.9142 7.75 10.5V6C7.75 5.58579 8.08579 5.25 8.5 5.25ZM8.5 0C8.91421 0 9.25 0.335786 9.25 0.75C9.25 1.16421 8.91421 1.5 8.5 1.5H5.5C5.08579 1.5 4.75 1.16421 4.75 0.75C4.75 0.335786 5.08579 0 5.5 0H8.5Z" fill="#EF4444"/>
</svg>
