<svg width="24" height="24" viewBox="0 0 24 24" fill="none" xmlns="http://www.w3.org/2000/svg">
<path d="M22.39 5.58023C22.25 5.41023 22.01 5.35022 21.81 5.43022C21.65 5.50022 21.5 5.56023 21.34 5.61023C21.59 5.25023 21.79 4.86023 21.92 4.44023C21.98 4.24023 21.92 4.03022 21.76 3.90022C21.6 3.77022 21.3701 3.75023 21.1901 3.86023C20.5201 4.25023 19.77 4.55023 19 4.72023C18.15 3.93023 17.02 3.49023 15.84 3.49023C13.3 3.49023 11.2401 5.53023 11.2401 8.03023C11.2401 8.15023 11.24 8.28023 11.26 8.41023C8.33004 8.10023 5.63005 6.67023 3.78005 4.41023C3.68005 4.28023 3.53005 4.22022 3.36005 4.23022C3.20005 4.24022 3.05005 4.33023 2.97005 4.47023C2.55005 5.17023 2.34004 5.95022 2.34004 6.76022C2.34004 7.62022 2.59005 8.45023 3.03005 9.16023C2.88005 9.09023 2.70005 9.12023 2.56005 9.20023C2.41005 9.29023 2.31005 9.48023 2.31005 9.66023C2.31005 11.0902 2.99005 12.3902 4.07006 13.2302C3.99006 13.2602 3.92005 13.3102 3.86005 13.3802C3.75005 13.5102 3.71005 13.6902 3.77005 13.8602C4.23005 15.2702 5.35005 16.3402 6.74005 16.7902C5.32005 17.5602 3.65005 17.8702 2.06005 17.6902C1.82005 17.6602 1.61005 17.8002 1.53005 18.0202C1.45005 18.2402 1.53004 18.4802 1.73004 18.6102C3.68004 19.8502 5.95004 20.5002 8.29004 20.5002C15.9 20.5002 20.45 14.4102 20.45 8.51022C20.45 8.42022 20.45 8.32022 20.45 8.23022C21.2 7.66022 21.8601 6.97023 22.4101 6.19023C22.5401 6.01023 22.53 5.76023 22.39 5.59023V5.58023ZM19.65 7.58023C19.51 7.68023 19.4301 7.85023 19.4401 8.02023C19.4501 8.18023 19.45 8.35022 19.45 8.51022C19.45 13.9102 15.28 19.5002 8.29004 19.5002C6.82004 19.5002 5.37004 19.2202 4.04004 18.6802C5.63004 18.5002 7.11005 17.8902 8.38005 16.9102C8.55005 16.7802 8.62005 16.5602 8.55005 16.3602C8.48005 16.1602 8.30004 16.0202 8.09004 16.0202C6.82004 15.9902 5.67005 15.3202 5.05005 14.2802C5.44005 14.2802 5.84005 14.2302 6.22005 14.1302C6.45005 14.0702 6.60005 13.8702 6.60005 13.6302C6.60005 13.4002 6.43004 13.2002 6.20004 13.1502C4.79004 12.8702 3.71004 11.7902 3.40004 10.4202C3.80004 10.5502 4.22004 10.6202 4.65004 10.6402C4.87004 10.6702 5.08004 10.5102 5.15004 10.2902C5.22004 10.0802 5.14004 9.84023 4.95004 9.72023C3.95004 9.06023 3.35005 7.96023 3.35005 6.78023C3.35005 6.39023 3.41004 6.01022 3.54004 5.65022C5.68004 7.93022 8.66004 9.31023 11.84 9.47023C11.99 9.47023 12.14 9.41023 12.25 9.30023C12.35 9.18023 12.39 9.02022 12.36 8.87022C12.3 8.59022 12.2701 8.31023 12.2701 8.05023C12.2701 6.10023 13.88 4.51022 15.87 4.51022C16.87 4.51022 17.83 4.92023 18.5 5.63023C18.62 5.75023 18.7901 5.81023 18.9601 5.78023C19.4001 5.70023 19.83 5.58022 20.25 5.43022C20.01 5.69022 19.7301 5.92023 19.4101 6.11023C19.2101 6.23023 19.1101 6.47023 19.1901 6.70023C19.2601 6.92023 19.48 7.07022 19.72 7.04022C19.98 7.01022 20.25 6.97023 20.51 6.92023C20.25 7.17023 19.97 7.39023 19.68 7.60023L19.65 7.58023Z" fill="#25314C"/>
</svg>
