<svg width="16" height="16" viewBox="0 0 16 16" fill="none" xmlns="http://www.w3.org/2000/svg">
<g id="user-ban">
<path id="user-ban_2" d="M4.00598 4.33268C4.00598 2.86202 5.20198 1.66602 6.67265 1.66602C8.14331 1.66602 9.33931 2.86202 9.33931 4.33268C9.33931 5.80335 8.14331 6.99935 6.67265 6.99935C5.20198 6.99935 4.00598 5.80335 4.00598 4.33268ZM7.83329 11.9993C7.83329 10.7193 8.40661 9.586 9.31327 8.81934C9.34661 8.786 9.37333 8.7327 9.37333 8.67936C9.37333 8.54403 9.2053 8.488 9.1733 8.47933C8.82663 8.386 8.43329 8.33268 7.99996 8.33268H5.33329C2.62663 8.33268 1.66663 10.3127 1.66663 12.0127C1.66663 13.5327 2.47329 14.3327 3.99996 14.3327H8.19332C8.30665 14.3327 8.39529 14.2467 8.39929 14.134C8.40129 14.0807 8.37992 14.0467 8.37992 14.0467C8.03326 13.4394 7.83329 12.7393 7.83329 11.9993ZM15.1666 11.9993C15.1666 13.7453 13.746 15.166 12 15.166C10.254 15.166 8.83329 13.7453 8.83329 11.9993C8.83329 10.2533 10.254 8.83268 12 8.83268C13.746 8.83268 15.1666 10.2533 15.1666 11.9993ZM10.1613 13.1313L13.132 10.1606C12.8013 9.95665 12.416 9.83268 12 9.83268C10.8053 9.83268 9.83329 10.8047 9.83329 11.9993C9.83329 12.4153 9.95659 12.8007 10.1613 13.1313ZM14.1666 11.9993C14.1666 11.5833 14.0433 11.198 13.8387 10.8674L10.868 13.8381C11.1986 14.0421 11.584 14.166 12 14.166C13.1946 14.166 14.1666 13.194 14.1666 11.9993Z" fill="#EF4444"/>
</g>
</svg>
