<svg width="18" height="19" viewBox="0 0 18 19" fill="none" xmlns="http://www.w3.org/2000/svg">
<g id="users-three-Bold">
<path id="users-three-Bold_1_" d="M8.9999 10.5615C9.74158 10.5615 10.4666 10.3416 11.0833 9.92954C11.7 9.51748 12.1806 8.93184 12.4644 8.24661C12.7483 7.56139 12.8225 6.80736 12.6778 6.07993C12.5331 5.3525 12.176 4.68433 11.6515 4.15988C11.1271 3.63544 10.4589 3.27827 9.73149 3.13358C9.00406 2.98888 8.25007 3.06316 7.56485 3.34699C6.87963 3.63082 6.29394 4.11147 5.88188 4.72815C5.46983 5.34484 5.2499 6.06984 5.2499 6.81152C5.25109 7.80572 5.64658 8.75888 6.34958 9.46188C7.05258 10.1649 8.0057 10.5603 8.9999 10.5615ZM8.9999 4.56153C9.4449 4.56153 9.8799 4.6935 10.2499 4.94074C10.6199 5.18797 10.9083 5.53934 11.0786 5.95047C11.2489 6.36161 11.2935 6.81406 11.2067 7.25052C11.1199 7.68698 10.9056 8.08786 10.5909 8.40253C10.2762 8.7172 9.8753 8.9315 9.43884 9.01831C9.00239 9.10513 8.54998 9.06053 8.13884 8.89023C7.72771 8.71993 7.37634 8.4316 7.12911 8.06159C6.88187 7.69158 6.7499 7.25653 6.7499 6.81152C6.7499 6.21479 6.98693 5.64248 7.40889 5.22052C7.83085 4.79856 8.40316 4.56153 8.9999 4.56153ZM14.2499 13.8615V14.511C14.2508 15.1751 14.0064 15.8161 13.5637 16.311C13.4983 16.3855 13.4187 16.4462 13.3297 16.4897C13.2407 16.5333 13.144 16.5587 13.0451 16.5646C12.9462 16.5706 12.8471 16.5568 12.7536 16.5242C12.66 16.4916 12.5738 16.4408 12.5 16.3748C12.4262 16.3087 12.3662 16.2286 12.3235 16.1392C12.2808 16.0498 12.2562 15.9528 12.2512 15.8538C12.2462 15.7549 12.2609 15.6559 12.2943 15.5627C12.3278 15.4694 12.3794 15.3837 12.4461 15.3105C12.6426 15.0907 12.7508 14.8059 12.7499 14.511V13.8615C12.754 13.4537 12.6217 13.0562 12.374 12.7322C12.1262 12.4083 11.7773 12.1764 11.3826 12.0735C11.2882 12.0489 11.188 12.061 11.1021 12.1073C10.4608 12.4645 9.73913 12.6524 9.00507 12.6533C8.27101 12.6542 7.54882 12.4681 6.90663 12.1125C6.81968 12.0624 6.71655 12.0484 6.61939 12.0735C6.22424 12.1758 5.87474 12.4075 5.62654 12.7315C5.37834 13.0556 5.24574 13.4534 5.2499 13.8615V14.511C5.24952 14.8058 5.35766 15.0904 5.55367 15.3105C5.68417 15.4591 5.75074 15.6531 5.73892 15.8504C5.7271 16.0478 5.63784 16.2325 5.49054 16.3644C5.34324 16.4963 5.1498 16.5646 4.95235 16.5547C4.75489 16.5447 4.56937 16.4571 4.43613 16.311C3.99341 15.8161 3.74905 15.1751 3.7499 14.511V13.8615C3.74514 13.1193 3.989 12.3967 4.44258 11.8091C4.89616 11.2215 5.53334 10.8027 6.25263 10.6193C6.72293 10.4995 7.22136 10.5667 7.64313 10.8068C8.06043 11.0355 8.52883 11.155 9.0047 11.1541C9.48057 11.1531 9.94848 11.0318 10.3649 10.8015C10.7864 10.5669 11.2815 10.5018 11.7494 10.6193C12.4682 10.8033 13.1047 11.2224 13.5578 11.8099C14.0109 12.3974 14.2545 13.1196 14.2499 13.8615ZM12.7934 3.69003C12.8598 3.50277 12.9978 3.34949 13.177 3.26386C13.3563 3.17822 13.5623 3.16722 13.7497 3.23328C14.2407 3.4069 14.6781 3.70539 15.0188 4.09937C15.3595 4.49334 15.5918 4.96928 15.6927 5.48026C15.7937 5.99124 15.7598 6.51964 15.5946 7.01358C15.4293 7.50752 15.1383 7.94991 14.7501 8.29724C14.6016 8.42775 14.4076 8.49437 14.2103 8.48255C14.0129 8.47073 13.8282 8.38146 13.6963 8.23416C13.5644 8.08686 13.496 7.89347 13.506 7.69602C13.516 7.49856 13.6036 7.31299 13.7497 7.17975C13.9441 7.00618 14.09 6.78499 14.1729 6.53787C14.2558 6.29076 14.2729 6.0263 14.2225 5.77057C14.1721 5.51484 14.0559 5.27668 13.8854 5.07953C13.7149 4.88238 13.4959 4.73307 13.2501 4.6463C13.0629 4.57992 12.9096 4.44189 12.824 4.26261C12.7383 4.08332 12.7273 3.87742 12.7934 3.69003ZM16.4999 11.94V12.4816C16.4999 12.6805 16.4209 12.8712 16.2802 13.0118C16.1396 13.1525 15.9488 13.2316 15.7499 13.2316C15.551 13.2316 15.3602 13.1525 15.2196 13.0118C15.0789 12.8712 14.9999 12.6805 14.9999 12.4816V11.94C15.0033 11.6279 14.9022 11.3237 14.7128 11.0757C14.5233 10.8277 14.2564 10.65 13.9544 10.5712C13.7627 10.5217 13.5983 10.3985 13.4971 10.2284C13.396 10.0582 13.3662 9.85489 13.4143 9.66284C13.4625 9.47079 13.5845 9.30554 13.754 9.20316C13.9235 9.10077 14.1265 9.06953 14.3189 9.11627C14.9449 9.27586 15.4997 9.64017 15.8949 10.1513C16.2901 10.6624 16.503 11.2909 16.4999 11.937V11.94ZM3.24965 8.63407C2.86151 8.28673 2.57048 7.84425 2.40521 7.35031C2.23994 6.85637 2.20611 6.32797 2.30707 5.81699C2.40802 5.30601 2.64029 4.83008 2.98099 4.4361C3.32169 4.04212 3.75907 3.74363 4.25014 3.57001C4.344 3.53235 4.44452 3.51409 4.54563 3.51627C4.64673 3.51845 4.74636 3.54106 4.8385 3.58273C4.93065 3.62441 5.01339 3.68422 5.0818 3.7587C5.15021 3.83318 5.20287 3.9208 5.23657 4.01615C5.27028 4.11149 5.28436 4.21267 5.27796 4.3136C5.27155 4.41453 5.2448 4.51304 5.19931 4.60336C5.15383 4.69369 5.09055 4.77397 5.01328 4.8392C4.936 4.90444 4.84632 4.95334 4.74965 4.98303C4.50387 5.0698 4.28491 5.21911 4.11441 5.41626C3.94391 5.61341 3.82773 5.85157 3.77732 6.1073C3.7269 6.36303 3.74398 6.62749 3.82689 6.8746C3.9098 7.12172 4.05568 7.34291 4.25014 7.51648C4.32456 7.58188 4.38528 7.66139 4.4288 7.7504C4.47233 7.8394 4.49782 7.93614 4.50374 8.03504C4.50966 8.13393 4.49591 8.23307 4.46332 8.32663C4.43073 8.42019 4.37995 8.50633 4.31386 8.58014C4.24777 8.65396 4.1677 8.71396 4.07829 8.75665C3.98889 8.79935 3.89192 8.82398 3.79297 8.82898C3.69402 8.83399 3.59504 8.81932 3.50179 8.78586C3.40853 8.7524 3.32285 8.70083 3.24965 8.63407ZM4.04616 10.9043C3.7434 10.9824 3.47548 11.1596 3.28517 11.4077C3.09487 11.6557 2.99311 11.9604 2.99614 12.273V12.8115C2.99614 13.0104 2.91711 13.2012 2.77646 13.3419C2.63581 13.4825 2.44505 13.5615 2.24614 13.5615C2.04723 13.5615 1.85647 13.4825 1.71582 13.3419C1.57517 13.2012 1.49614 13.0104 1.49614 12.8115V12.27C1.49244 11.6235 1.70504 10.9945 2.10011 10.4828C2.49519 9.97111 3.05003 9.6062 3.67638 9.44623C3.86932 9.3977 4.07367 9.42779 4.24442 9.52991C4.41517 9.63202 4.53838 9.79784 4.58692 9.99079C4.63545 10.1837 4.60535 10.388 4.50324 10.5588C4.40112 10.7295 4.23535 10.8527 4.04241 10.9013L4.04616 10.9043Z" fill="#121125"/>
</g>
</svg>
