<svg width="20" height="18" viewBox="0 0 20 18" fill="none" xmlns="http://www.w3.org/2000/svg">
<path fill-rule="evenodd" clip-rule="evenodd" d="M1.22039 11.8874C2.00179 11.106 3.0616 10.667 4.16667 10.667H10.8333C11.9384 10.667 12.9982 11.106 13.7796 11.8874C14.561 12.6688 15 13.7286 15 14.8337V16.5003C15 16.9606 14.6269 17.3337 14.1667 17.3337C13.7064 17.3337 13.3333 16.9606 13.3333 16.5003V14.8337C13.3333 14.1706 13.0699 13.5347 12.6011 13.0659C12.1323 12.5971 11.4964 12.3337 10.8333 12.3337H4.16667C3.50363 12.3337 2.86774 12.5971 2.3989 13.0659C1.93006 13.5347 1.66667 14.1706 1.66667 14.8337V16.5003C1.66667 16.9606 1.29357 17.3337 0.833333 17.3337C0.373096 17.3337 0 16.9606 0 16.5003V14.8337C0 13.7286 0.438987 12.6688 1.22039 11.8874Z" fill="#F9FAFB"/>
<path fill-rule="evenodd" clip-rule="evenodd" d="M7.5 2.33366C6.11929 2.33366 5 3.45295 5 4.83366C5 6.21437 6.11929 7.33366 7.5 7.33366C8.88071 7.33366 10 6.21437 10 4.83366C10 3.45295 8.88071 2.33366 7.5 2.33366ZM3.33333 4.83366C3.33333 2.53247 5.19881 0.666992 7.5 0.666992C9.80119 0.666992 11.6667 2.53247 11.6667 4.83366C11.6667 7.13485 9.80119 9.00033 7.5 9.00033C5.19881 9.00033 3.33333 7.13485 3.33333 4.83366Z" fill="#F9FAFB"/>
<path fill-rule="evenodd" clip-rule="evenodd" d="M15.8598 11.4003C15.9749 10.9547 16.4294 10.6867 16.875 10.8018C17.7689 11.0326 18.5608 11.5537 19.1264 12.2834C19.692 13.013 19.9993 13.9098 20 14.833V16.5003C20 16.9606 19.6269 17.3337 19.1667 17.3337C18.7064 17.3337 18.3333 16.9606 18.3333 16.5003V14.8343C18.3329 14.2804 18.1485 13.7422 17.8092 13.3045C17.4698 12.8667 16.9947 12.554 16.4583 12.4155C16.0127 12.3005 15.7447 11.8459 15.8598 11.4003Z" fill="#F9FAFB"/>
<path fill-rule="evenodd" clip-rule="evenodd" d="M12.526 1.40196C12.6402 0.956105 13.0942 0.68721 13.54 0.801367C14.4363 1.03085 15.2307 1.5521 15.798 2.28294C16.3653 3.01378 16.6732 3.91265 16.6732 4.83783C16.6732 5.763 16.3653 6.66187 15.798 7.39271C15.2307 8.12355 14.4363 8.6448 13.54 8.87428C13.0942 8.98844 12.6402 8.71955 12.526 8.27369C12.4119 7.82784 12.6808 7.37386 13.1266 7.2597C13.6644 7.12201 14.141 6.80926 14.4814 6.37076C14.8218 5.93225 15.0065 5.39293 15.0065 4.83783C15.0065 4.28272 14.8218 3.7434 14.4814 3.30489C14.141 2.86639 13.6644 2.55364 13.1266 2.41595C12.6808 2.30179 12.4119 1.84781 12.526 1.40196Z" fill="#F9FAFB"/>
</svg>
