<svg width="16" height="15" viewBox="0 0 16 15" fill="none" xmlns="http://www.w3.org/2000/svg">
<path fill-rule="evenodd" clip-rule="evenodd" d="M12.125 0.75C13.9557 0.75 15.4459 2.20755 15.4986 4.02549L15.5 4.125V8.625C15.5 9.03921 15.1642 9.375 14.75 9.375C14.3546 9.375 14.0307 9.06905 14.0021 8.68097L14 8.625V4.125C14 3.11672 13.2041 2.29432 12.2063 2.25173L12.125 2.25H3.875C2.86672 2.25 2.04432 3.04587 2.00173 4.04367L2 4.125V10.875C2 11.8833 2.79587 12.7057 3.79367 12.7483L3.875 12.75H9.125C9.53921 12.75 9.875 13.0858 9.875 13.5C9.875 13.8954 9.56905 14.2193 9.18097 14.2479L9.125 14.25H3.875C2.04432 14.25 0.554078 12.7924 0.501439 10.9745L0.5 10.875V4.125C0.5 2.29432 1.95755 0.804078 3.77549 0.751439L3.875 0.75H12.125ZM13.25 9.75C13.5424 9.75 13.7794 9.98703 13.7794 10.2794V11.4706H14.9706C15.263 11.4706 15.5 11.7076 15.5 12C15.5 12.2924 15.263 12.5294 14.9706 12.5294H13.7794V13.7206C13.7794 14.013 13.5424 14.25 13.25 14.25C12.9576 14.25 12.7206 14.013 12.7206 13.7206V12.5294H11.5294C11.237 12.5294 11 12.2924 11 12C11 11.7076 11.237 11.4706 11.5294 11.4706H12.7206V10.2794C12.7206 9.98703 12.9576 9.75 13.25 9.75ZM10.7042 7.83541L6.66771 9.85365C6.48246 9.94627 6.25721 9.87118 6.16459 9.68594C6.13855 9.63387 6.125 9.57645 6.125 9.51824V5.48176C6.125 5.27466 6.29289 5.10676 6.5 5.10676C6.55822 5.10676 6.61563 5.12032 6.66771 5.14635L10.7042 7.16459C10.8894 7.25721 10.9645 7.48246 10.8719 7.66771C10.8356 7.74028 10.7768 7.79912 10.7042 7.83541Z" fill="#F9FAFB"/>
</svg>
