<svg width="20" height="20" viewBox="0 0 20 20" fill="none" xmlns="http://www.w3.org/2000/svg">
<rect x="1" y="1" width="18.33" height="18.33" rx="4" fill="#5ABE47"/>
<path d="M12.1479 5.14575H8.07378C6.8424 5.14575 6.16406 5.82409 6.16406 7.05547V14.6944C6.16406 14.8308 6.2369 14.9566 6.35454 15.0243C6.41361 15.059 6.4798 15.0763 6.54601 15.0763C6.61119 15.0763 6.67692 15.0595 6.73549 15.0259L10.1108 13.0968L13.4862 15.0254C13.6043 15.0931 13.75 15.0926 13.8671 15.0238C13.9847 14.9556 14.0576 14.8298 14.0576 14.6939V7.05498C14.0576 5.8241 13.3792 5.14575 12.1479 5.14575ZM13.2937 14.0359L10.3003 12.3258C10.1832 12.2586 10.0385 12.2586 9.92134 12.3258L6.92795 14.0364V7.05547C6.92795 6.25237 7.27068 5.90964 8.07378 5.90964H12.1479C12.951 5.90964 13.2937 6.25237 13.2937 7.05547V14.0359Z" fill="white"/>
<path d="M13.2937 14.0359L10.3003 12.3258C10.1832 12.2586 10.0385 12.2586 9.92134 12.3258L6.92795 14.0364V7.05547C6.92795 6.25237 7.27068 5.90964 8.07378 5.90964H12.1479C12.951 5.90964 13.2937 6.25237 13.2937 7.05547V14.0359Z" fill="white"/>
</svg>
