<?xml version="1.0" standalone="no"?>
<!DOCTYPE svg PUBLIC "-//W3C//DTD SVG 20010904//EN"
 "http://www.w3.org/TR/2001/REC-SVG-20010904/DTD/svg10.dtd">
<svg version="1.0" xmlns="http://www.w3.org/2000/svg"
 width="512.000000pt" height="512.000000pt" viewBox="0 0 512.000000 512.000000"
 preserveAspectRatio="xMidYMid meet">
<metadata>
Created by potrace 1.14, written by Peter Selinger 2001-2017
</metadata>
<g transform="translate(0.000000,512.000000) scale(0.100000,-0.100000)"
fill="#000000" stroke="none">
<path d="M25 5095 l-25 -24 0 -2511 0 -2511 25 -24 24 -25 2511 0 2511 0 24
25 25 24 0 2511 0 2511 -25 24 -24 25 -2511 0 -2511 0 -24 -25z m3697 -1591
c50 -17 109 -67 134 -115 23 -45 29 -121 13 -176 -11 -40 -126 -189 -673 -873
-363 -454 -669 -833 -680 -842 -69 -57 -186 -71 -261 -31 -23 12 -234 216
-496 480 -422 423 -457 462 -469 506 -40 150 60 294 211 305 115 8 115 8 504
-379 l350 -348 550 700 c303 386 563 714 579 730 56 55 153 72 238 43z"/>
</g>
</svg>
